<svg width="68" height="68" viewBox="0 0 68 68" fill="none" xmlns="http://www.w3.org/2000/svg">
<g filter="url(#filter0_dd_14022_968)">
<path d="M12 12C12 5.37258 17.3726 0 24 0H44C50.6274 0 56 5.37258 56 12V32C56 38.6274 50.6274 44 44 44H24C17.3726 44 12 38.6274 12 32V12Z" fill="white" fill-opacity="0.12" shape-rendering="crispEdges"/>
<path fill-rule="evenodd" clip-rule="evenodd" d="M33.9999 32.75C35.1914 32.7499 36.0353 32.209 36.7675 31.7393C36.8811 31.6664 36.9924 31.5945 37.1015 31.5273C37.9257 31.0202 38.9011 30.5274 40.666 30.5273C41.0101 30.5273 41.311 30.2938 41.3945 29.96C41.6686 28.8635 41.9079 28.347 42.2382 28.0166C42.5686 27.6862 43.0849 27.446 44.1816 27.1719C44.4929 27.094 44.7202 26.8266 44.747 26.5068C44.7551 26.41 44.742 26.3157 44.7148 26.2266C44.8215 25.891 44.6791 25.5165 44.3583 25.3418C42.4729 24.3147 41.8356 23.4657 41.7587 22.7461C41.6788 21.9959 42.1543 20.9913 43.582 19.5225C43.8704 19.2254 43.8633 18.7505 43.5663 18.4619C43.2693 18.1735 42.7944 18.1806 42.5058 18.4775C41.5127 19.4993 40.7491 20.5083 40.4228 21.5254C40.2099 20.4544 40.1738 19.1382 40.1738 17.4248C40.1738 14.0148 37.4099 11.2501 33.9999 11.25C30.5899 11.25 27.8251 14.0148 27.8251 17.4248C27.8251 19.1378 27.7889 20.4535 27.5761 21.5244C27.2496 20.5076 26.486 19.499 25.4931 18.4775C25.2044 18.1805 24.7296 18.1732 24.4326 18.4619C24.1356 18.7506 24.1293 19.2254 24.4179 19.5225C25.8456 20.9913 26.3211 21.9959 26.2412 22.7461C26.1643 23.4657 25.526 24.3147 23.6406 25.3418C23.3202 25.5166 23.1775 25.8912 23.2841 26.2266C23.257 26.3156 23.2438 26.4101 23.2519 26.5068C23.2787 26.8266 23.507 27.094 23.8183 27.1719C24.9146 27.446 25.4303 27.6863 25.7607 28.0166C26.0911 28.347 26.3312 28.8633 26.6054 29.96C26.689 30.2937 26.9889 30.5273 27.333 30.5273C29.0983 30.5273 30.0741 31.0201 30.8984 31.5273C31.0075 31.5945 31.1187 31.6664 31.2324 31.7393C31.9646 32.209 32.8085 32.75 33.9999 32.75ZM33.9999 31.25C33.2747 31.25 32.8208 30.9639 32.08 30.4971C31.957 30.4196 31.8259 30.337 31.6845 30.25C30.7961 29.7033 29.6902 29.1448 27.913 29.0439C27.6628 28.1807 27.3547 27.4888 26.8222 26.9561C26.5558 26.6896 26.2488 26.4796 25.9013 26.3047C27.2302 25.4831 28.0884 24.5189 28.6054 23.2949C29.2762 21.7068 29.3251 19.7682 29.3251 17.4248C29.3251 14.8432 31.4183 12.75 33.9999 12.75C36.5815 12.7501 38.6738 14.8432 38.6738 17.4248C38.6738 19.7682 38.7237 21.7068 39.3945 23.2949C39.9115 24.5188 40.7688 25.4832 42.0976 26.3047C41.7502 26.4796 41.444 26.6898 41.1777 26.9561C40.645 27.4888 40.3371 28.1806 40.0869 29.0439C38.3098 29.1448 37.2037 29.7033 36.3154 30.25C36.174 30.337 36.0428 30.4196 35.9199 30.4971C35.179 30.9639 34.7251 31.25 33.9999 31.25Z" fill="white"/>
</g>
<defs>
<filter id="filter0_dd_14022_968" x="0" y="0" width="68" height="68" filterUnits="userSpaceOnUse" color-interpolation-filters="sRGB">
<feFlood flood-opacity="0" result="BackgroundImageFix"/>
<feColorMatrix in="SourceAlpha" type="matrix" values="0 0 0 0 0 0 0 0 0 0 0 0 0 0 0 0 0 0 127 0" result="hardAlpha"/>
<feMorphology radius="2" operator="erode" in="SourceAlpha" result="effect1_dropShadow_14022_968"/>
<feOffset dy="4"/>
<feGaussianBlur stdDeviation="3"/>
<feComposite in2="hardAlpha" operator="out"/>
<feColorMatrix type="matrix" values="0 0 0 0 0.0627451 0 0 0 0 0.0941176 0 0 0 0 0.156863 0 0 0 0.03 0"/>
<feBlend mode="normal" in2="BackgroundImageFix" result="effect1_dropShadow_14022_968"/>
<feColorMatrix in="SourceAlpha" type="matrix" values="0 0 0 0 0 0 0 0 0 0 0 0 0 0 0 0 0 0 127 0" result="hardAlpha"/>
<feMorphology radius="4" operator="erode" in="SourceAlpha" result="effect2_dropShadow_14022_968"/>
<feOffset dy="12"/>
<feGaussianBlur stdDeviation="8"/>
<feComposite in2="hardAlpha" operator="out"/>
<feColorMatrix type="matrix" values="0 0 0 0 0.0627451 0 0 0 0 0.0941176 0 0 0 0 0.156863 0 0 0 0.08 0"/>
<feBlend mode="normal" in2="effect1_dropShadow_14022_968" result="effect2_dropShadow_14022_968"/>
<feBlend mode="normal" in="SourceGraphic" in2="effect2_dropShadow_14022_968" result="shape"/>
</filter>
</defs>
</svg>
