<svg width="68" height="68" viewBox="0 0 68 68" fill="none" xmlns="http://www.w3.org/2000/svg">
<g filter="url(#filter0_dd_14022_966)">
<path d="M12 12C12 5.37258 17.3726 0 24 0H44C50.6274 0 56 5.37258 56 12V32C56 38.6274 50.6274 44 44 44H24C17.3726 44 12 38.6274 12 32V12Z" fill="white" fill-opacity="0.12" shape-rendering="crispEdges"/>
<path fill-rule="evenodd" clip-rule="evenodd" d="M24.3322 12.6586C24.4605 12.4078 24.7184 12.25 25 12.25H30C30.2408 12.25 30.467 12.3656 30.608 12.5609L35.544 19.3953L42.4697 12.4697C42.7626 12.1768 43.2374 12.1768 43.5303 12.4697C43.8232 12.7626 43.8232 13.2374 43.5303 13.5303L36.4336 20.6271L43.608 30.5609C43.7729 30.7892 43.796 31.0907 43.6678 31.3414C43.5396 31.5922 43.2817 31.75 43 31.75H38C37.7592 31.75 37.533 31.6344 37.392 31.4391L32.456 24.6047L25.5303 31.5303C25.2374 31.8232 24.7626 31.8232 24.4697 31.5303C24.1768 31.2374 24.1768 30.7626 24.4697 30.4697L31.5664 23.3729L24.392 13.4391C24.2271 13.2108 24.204 12.9093 24.3322 12.6586ZM26.4668 13.75L38.3835 30.25H41.5332L29.6165 13.75H26.4668Z" fill="white"/>
</g>
<defs>
<filter id="filter0_dd_14022_966" x="0" y="0" width="68" height="68" filterUnits="userSpaceOnUse" color-interpolation-filters="sRGB">
<feFlood flood-opacity="0" result="BackgroundImageFix"/>
<feColorMatrix in="SourceAlpha" type="matrix" values="0 0 0 0 0 0 0 0 0 0 0 0 0 0 0 0 0 0 127 0" result="hardAlpha"/>
<feMorphology radius="2" operator="erode" in="SourceAlpha" result="effect1_dropShadow_14022_966"/>
<feOffset dy="4"/>
<feGaussianBlur stdDeviation="3"/>
<feComposite in2="hardAlpha" operator="out"/>
<feColorMatrix type="matrix" values="0 0 0 0 0.0627451 0 0 0 0 0.0941176 0 0 0 0 0.156863 0 0 0 0.03 0"/>
<feBlend mode="normal" in2="BackgroundImageFix" result="effect1_dropShadow_14022_966"/>
<feColorMatrix in="SourceAlpha" type="matrix" values="0 0 0 0 0 0 0 0 0 0 0 0 0 0 0 0 0 0 127 0" result="hardAlpha"/>
<feMorphology radius="4" operator="erode" in="SourceAlpha" result="effect2_dropShadow_14022_966"/>
<feOffset dy="12"/>
<feGaussianBlur stdDeviation="8"/>
<feComposite in2="hardAlpha" operator="out"/>
<feColorMatrix type="matrix" values="0 0 0 0 0.0627451 0 0 0 0 0.0941176 0 0 0 0 0.156863 0 0 0 0.08 0"/>
<feBlend mode="normal" in2="effect1_dropShadow_14022_966" result="effect2_dropShadow_14022_966"/>
<feBlend mode="normal" in="SourceGraphic" in2="effect2_dropShadow_14022_966" result="shape"/>
</filter>
</defs>
</svg>
