<svg width="68" height="68" viewBox="0 0 68 68" fill="none" xmlns="http://www.w3.org/2000/svg">
<g filter="url(#filter0_dd_14022_965)">
<path d="M12 12C12 5.37258 17.3726 0 24 0H44C50.6274 0 56 5.37258 56 12V32C56 38.6274 50.6274 44 44 44H24C17.3726 44 12 38.6274 12 32V12Z" fill="white" fill-opacity="0.12" shape-rendering="crispEdges"/>
<path fill-rule="evenodd" clip-rule="evenodd" d="M26.5449 18.75C26.9777 18.7499 27.3745 18.7496 27.6973 18.793C28.0527 18.8408 28.4283 18.9537 28.7373 19.2627C29.0463 19.5717 29.1592 19.9473 29.207 20.3027C29.2504 20.6255 29.2501 21.0223 29.25 21.4551V30.0449C29.2501 30.4777 29.2504 30.8745 29.207 31.1973C29.1592 31.5527 29.0463 31.9283 28.7373 32.2373C28.4283 32.5463 28.0527 32.6592 27.6973 32.707C27.3745 32.7504 26.9777 32.75 26.5449 32.75H25.9551C25.5223 32.75 25.1255 32.7504 24.8027 32.707C24.4473 32.6592 24.0717 32.5463 23.7627 32.2373C23.4537 31.9283 23.3408 31.5527 23.293 31.1973C23.2496 30.8745 23.25 30.4777 23.25 30.0449V21.4551C23.25 21.0223 23.2496 20.6255 23.293 20.3027C23.3408 19.9473 23.4537 19.5717 23.7627 19.2627C24.0717 18.9537 24.4473 18.8408 24.8027 18.793C25.1255 18.7496 25.5223 18.7499 25.9551 18.75H26.5449ZM39.2969 18.75C41.992 18.7501 44.7499 21.0444 44.75 24L44.749 29.5459C44.749 29.9783 44.7485 30.3747 44.7051 30.6973C44.6572 31.0527 44.5444 31.4284 44.2354 31.7373C43.9264 32.0462 43.5507 32.1593 43.1953 32.207C42.8728 32.2503 42.4763 32.25 42.044 32.25H41.4551C41.0223 32.25 40.6255 32.2504 40.3027 32.207C39.9473 32.1592 39.5717 32.0463 39.2627 31.7373C38.9537 31.4283 38.8408 31.0527 38.793 30.6973C38.7496 30.3745 38.75 29.9777 38.75 29.5449L38.75 25C38.7499 24.5426 38.4115 24.25 38.0879 24.25C37.5707 24.25 37.2927 24.4484 37.1016 24.7656C36.8769 25.1386 36.75 25.7288 36.75 26.5L36.75 30.0449C36.7501 30.4777 36.7504 30.8745 36.707 31.1973C36.6592 31.5527 36.5463 31.9283 36.2373 32.2373C35.9283 32.5463 35.5527 32.6592 35.1973 32.707C34.8745 32.7504 34.4777 32.75 34.0449 32.75H33.4551C33.0223 32.75 32.6255 32.7504 32.3027 32.707C31.9473 32.6592 31.5717 32.5463 31.2627 32.2373C30.9537 31.9283 30.8408 31.5527 30.793 31.1973C30.7496 30.8745 30.75 30.4777 30.75 30.0449V21.4551C30.75 21.0223 30.7496 20.6255 30.793 20.3027C30.8408 19.9473 30.9537 19.5717 31.2627 19.2627C31.5717 18.9537 31.9473 18.8408 32.3027 18.793C32.6255 18.7496 33.0223 18.7499 33.4551 18.75C33.7447 18.75 34.9114 18.7502 35.1328 18.7705C35.3721 18.7925 35.6328 18.8424 35.8838 18.9893C36.143 19.1409 36.3591 19.357 36.5107 19.6162L36.5225 19.6367C37.3122 19.0792 38.2657 18.75 39.2969 18.75ZM26 20.25C25.5076 20.25 25.2136 20.252 25.0029 20.2803C24.9064 20.2933 24.8577 20.3084 24.8359 20.3174C24.831 20.3194 24.8271 20.3213 24.8252 20.3223L24.8232 20.3232L24.8223 20.3252C24.8213 20.3271 24.8194 20.331 24.8174 20.3359C24.8084 20.3577 24.7933 20.4064 24.7803 20.5029C24.752 20.7136 24.75 21.0076 24.75 21.5V30C24.75 30.4924 24.752 30.7864 24.7803 30.9971C24.7933 31.0936 24.8084 31.1423 24.8174 31.1641C24.8194 31.1691 24.8213 31.1729 24.8223 31.1748L24.8232 31.1768L24.8252 31.1777C24.8271 31.1787 24.831 31.1806 24.8359 31.1826C24.8577 31.1916 24.9064 31.2067 25.0029 31.2197C25.2136 31.248 25.5076 31.25 26 31.25H26.5C26.9924 31.25 27.2864 31.248 27.4971 31.2197C27.5936 31.2067 27.6423 31.1916 27.6641 31.1826C27.6691 31.1806 27.6729 31.1787 27.6748 31.1777L27.6768 31.1768L27.6777 31.1748C27.6787 31.1729 27.6806 31.1691 27.6826 31.1641C27.6916 31.1423 27.7067 31.0936 27.7197 30.9971C27.748 30.7864 27.75 30.4924 27.75 30V21.5C27.75 21.0076 27.748 20.7136 27.7197 20.5029C27.7067 20.4064 27.6916 20.3577 27.6826 20.3359C27.6806 20.331 27.6787 20.3271 27.6777 20.3252L27.6768 20.3232L27.6748 20.3223C27.6729 20.3213 27.6691 20.3194 27.6641 20.3174C27.6423 20.3084 27.5936 20.2933 27.4971 20.2803C27.2864 20.252 26.9924 20.25 26.5 20.25H26ZM33.5 20.25C33.0076 20.25 32.7136 20.252 32.5029 20.2803C32.4353 20.2776 32.2961 20.3184 32.2803 20.5029C32.252 20.7136 32.25 21.0076 32.25 21.5L32.25 30C32.25 30.4924 32.252 30.7864 32.2803 30.9971C32.2923 31.119 32.4337 31.1963 32.5029 31.2197C32.7136 31.248 33.0076 31.25 33.5 31.25H34C34.4924 31.25 34.7864 31.248 34.9971 31.2197C35.0659 31.2024 35.2067 31.1336 35.2197 30.9971C35.248 30.7864 35.25 30.4924 35.25 30L35.25 26.5C35.25 25.6146 35.3873 24.7049 35.8164 23.9922C36.2793 23.2237 37.0454 22.75 38.0879 22.75C39.324 22.75 40.2499 23.8007 40.25 25V29.5C40.25 29.9924 40.252 30.2864 40.2803 30.4971C40.2803 30.6551 40.3756 30.6824 40.4502 30.7031C40.4698 30.7086 40.4884 30.7128 40.5029 30.7197C40.7136 30.748 41.0076 30.75 41.5 30.75H41.999C42.4914 30.75 42.7855 30.748 42.9961 30.7197C43.0656 30.6938 43.2071 30.6132 43.2188 30.4971C43.2471 30.2864 43.2489 29.9921 43.249 29.5L43.25 24C43.2498 21.9854 41.2808 20.2501 39.2969 20.25C38.2194 20.25 37.244 20.777 36.5967 21.6279C36.4019 21.884 36.0657 21.9874 35.7607 21.8848C35.4557 21.7819 35.25 21.4957 35.25 21.1738C35.25 20.8449 35.2496 20.6485 35.2363 20.5039C35.2278 20.3532 35.0729 20.2809 34.9961 20.2637C34.8515 20.2504 34.6551 20.25 34.3262 20.25L33.5 20.25ZM26.25 11.25C27.9069 11.25 29.25 12.5931 29.25 14.25C29.25 15.9069 27.9069 17.25 26.25 17.25C24.5932 17.25 23.25 15.9069 23.25 14.25C23.25 12.5931 24.5932 11.25 26.25 11.25ZM26.25 12.75C25.4216 12.75 24.75 13.4216 24.75 14.25C24.75 15.0784 25.4216 15.75 26.25 15.75C27.0784 15.75 27.75 15.0784 27.75 14.25C27.75 13.4216 27.0784 12.75 26.25 12.75Z" fill="white"/>
</g>
<defs>
<filter id="filter0_dd_14022_965" x="0" y="0" width="68" height="68" filterUnits="userSpaceOnUse" color-interpolation-filters="sRGB">
<feFlood flood-opacity="0" result="BackgroundImageFix"/>
<feColorMatrix in="SourceAlpha" type="matrix" values="0 0 0 0 0 0 0 0 0 0 0 0 0 0 0 0 0 0 127 0" result="hardAlpha"/>
<feMorphology radius="2" operator="erode" in="SourceAlpha" result="effect1_dropShadow_14022_965"/>
<feOffset dy="4"/>
<feGaussianBlur stdDeviation="3"/>
<feComposite in2="hardAlpha" operator="out"/>
<feColorMatrix type="matrix" values="0 0 0 0 0.0627451 0 0 0 0 0.0941176 0 0 0 0 0.156863 0 0 0 0.03 0"/>
<feBlend mode="normal" in2="BackgroundImageFix" result="effect1_dropShadow_14022_965"/>
<feColorMatrix in="SourceAlpha" type="matrix" values="0 0 0 0 0 0 0 0 0 0 0 0 0 0 0 0 0 0 127 0" result="hardAlpha"/>
<feMorphology radius="4" operator="erode" in="SourceAlpha" result="effect2_dropShadow_14022_965"/>
<feOffset dy="12"/>
<feGaussianBlur stdDeviation="8"/>
<feComposite in2="hardAlpha" operator="out"/>
<feColorMatrix type="matrix" values="0 0 0 0 0.0627451 0 0 0 0 0.0941176 0 0 0 0 0.156863 0 0 0 0.08 0"/>
<feBlend mode="normal" in2="effect1_dropShadow_14022_965" result="effect2_dropShadow_14022_965"/>
<feBlend mode="normal" in="SourceGraphic" in2="effect2_dropShadow_14022_965" result="shape"/>
</filter>
</defs>
</svg>
