<svg width="94" height="117" viewBox="0 0 94 117" fill="none" xmlns="http://www.w3.org/2000/svg">
<path d="M19.7555 29.7157C19.7555 29.7157 25.2185 24.7189 31.0448 22.8823L26.3488 22.3257L21.9148 23.6634L19.7555 29.7157Z" fill="#2E368F"/>
<path d="M10.8843 34.3795C10.8843 34.3795 14.1147 35.1481 17.2422 32.175C20.3698 29.2018 21.4783 27.7737 23.795 26.3082C26.1118 24.8427 18.1652 26.7915 18.1652 26.7915L10.8843 34.3795Z" fill="#2E368F"/>
<path d="M71.0927 107.701C71.8909 100.707 69.1906 90.7324 54.554 85.7075C51.5684 84.6832 48.9881 83.4469 46.754 82.0764C40.078 77.5442 34.785 70.8885 33.0606 62.9949C32.1143 58.115 33.1417 53.8026 33.5611 52.3542C34.8177 48.1525 37.3559 44.5339 41.5124 42.2732C45.8731 39.8988 51.8802 39.6602 56.1661 42.1438C56.5543 42.3683 56.9238 42.7113 57.3323 42.9249L56.7913 41.8726C54.9968 39.5059 52.4898 38.2196 49.749 37.4339C38.6312 34.2471 28.8808 39.6883 24.428 49.735C22.1346 54.908 21.4564 60.4224 22.3529 66.1411C22.3841 66.3407 22.6943 66.5169 22.3919 66.7211C22.052 66.0912 21.6903 65.452 21.4003 64.7941C15.4368 51.241 22.9344 35.7594 36.6621 31.5452C49.3078 27.6647 64.1642 34.8084 66.668 48.2726C67.5146 52.8251 66.4669 57.8235 62.8031 60.8668C58.7947 64.1985 51.3377 62.8982 49.2329 58.0121C48.3442 55.9494 48.7512 52.5288 50.8403 51.3845C53.5625 49.8956 56.3548 51.517 58.1446 53.6046C58.1992 53.6685 58.1415 53.7714 58.3473 53.7169C58.3239 53.2055 58.3816 52.6816 58.3473 52.1702C57.8328 44.5433 48.1587 42.9109 42.8126 47.1173C39.9923 49.3374 37.8439 54.1425 37.6459 57.6504C36.6792 74.8408 58.0277 82.7889 68.751 69.6069C74.1438 62.6239 74.5445 52.797 71.6758 44.8551C66.3625 30.1483 50.2479 22.0723 35.1124 26.6809C23.3149 30.273 14.5903 41.5249 14.294 54.1097C14.294 54.1097 14.2691 54.6164 14.294 55.5129C14.3143 56.4858 14.3829 57.4462 14.4936 58.3925C15.1204 64.2328 17.5494 74.8486 26.6934 82.5426C31.2724 87.0966 38.2757 91.1783 49.0006 93.1272C63.1601 95.7012 67.4585 102.391 68.5265 107.701H71.0911H71.0927Z" fill="#FCEE23"/>
<path d="M11.0699 112.12H82.0826L78.8288 92.8971L76.1613 92.0474L72.577 99.9207L69.8782 100.267L67.6409 92.8971L64.3637 92.0474L61.8193 96.274L51.9956 92.5182L50.0717 93.8668L43.9523 99.9862L37.3372 99.4405L36.6465 99.1084L33.8495 92.0474L29.3828 93.2556L27.5665 97.8144L23.4396 92.303L17.3623 94.1053L16.3801 96.7417L12.3904 92.0474L11.285 109.704L11.0699 112.12Z" fill="#2F3A8E"/>
<path d="M27.5961 110.911H22.9142L19.8943 96.2234L16.7215 110.911H12.0131L7.58691 93.2549H11.3989L14.3673 108.199L17.4886 93.5106H22.4543L25.4726 108.25L28.6453 93.2549H32.2795L27.5961 110.911Z" fill="#2E368F"/>
<path d="M13.9137 112.12H11.0699L6.03723 92.0474H12.3905L14.4063 102.198L16.5095 92.303H23.4381L25.4914 102.323L27.6663 92.0474H33.8496L28.5253 112.12H21.9273L19.8631 102.083L17.6944 112.12H13.9121H13.9137ZM26.4003 109.704H26.6669L30.708 94.4655H29.6245L26.4003 109.704ZM23.8996 109.704H24.5372L21.4674 94.7212H20.8188L23.8996 109.704ZM15.2841 109.704H15.7471L18.9838 94.7212H18.4693L15.2841 109.704ZM12.9564 109.704H13.435L10.4073 94.4655H9.13511L12.9564 109.704Z" fill="#2E398E"/>
<path d="M36.6309 105.589L34.8645 110.911H31.1024L37.4744 93.2549H41.9021L48.1462 110.911H44.3078L42.5679 105.589H36.6309ZM37.5258 102.8H41.6714L39.6243 96.2748L37.5258 102.8Z" fill="#2E368F"/>
<path d="M49.855 112.12H43.4316L41.6917 106.798H37.504L35.7376 112.12H29.3828L36.6263 92.0474H42.7566L49.855 112.12ZM45.184 109.704H46.4375L41.0494 94.4639H40.3244L43.3178 104.009H35.8686L38.9384 94.4639H38.3241L32.8252 109.704H33.9946L35.761 104.381H43.4457L45.1856 109.704H45.184ZM39.1847 101.592H40.0266L39.6103 100.267L39.1847 101.592Z" fill="#2E398E"/>
<path d="M62.3993 98.4508H58.7916C58.5874 96.6594 57.5896 95.5338 55.7467 95.5338C54.3389 95.5338 53.2647 96.1995 53.2647 97.6323C53.2647 99.0651 54.2111 99.8586 57.0267 100.524C60.9166 101.419 62.6566 103.211 62.6566 106.051C62.6566 109.377 59.6117 111.271 56.1318 111.271C51.9099 111.271 49.1456 109.403 48.8135 105.693H52.4212C52.8048 107.637 54.289 108.636 56.0804 108.636C57.6925 108.636 58.9725 107.766 58.9725 106.41C58.9725 104.926 58.0511 104.056 55.4412 103.441C51.8335 102.571 49.5557 101.318 49.5557 98.0673C49.5557 94.8166 52.4992 92.8989 55.8761 92.8989C60.0981 92.8989 62.0173 95.3046 62.4009 98.4524" fill="#2E368F"/>
<path d="M56.1303 111.91C51.0944 111.91 47.9888 110.044 47.6084 105.8L47.4899 104.484H53.4128L53.6046 105.459C53.9429 107.17 55.2993 107.426 56.0788 107.426C56.9145 107.426 57.7626 107.077 57.7626 106.408C57.7626 105.911 57.7626 105.228 55.1621 104.617C51.7882 103.803 48.3442 102.39 48.3442 98.0671C48.3442 94.372 51.5107 91.6904 55.873 91.6904C60.2353 91.6904 63.0853 94.1023 63.5982 98.3056L63.7635 99.6604H58.4611C62.0454 100.78 63.8633 102.927 63.8633 106.051C63.8633 109.776 60.611 111.91 56.1303 111.91ZM50.29 106.901C50.8637 108.544 52.401 110.063 56.1287 110.063C58.6887 110.063 61.4451 108.808 61.4451 106.051C61.4451 103.295 59.0738 102.236 56.7523 101.701C54.4761 101.163 52.0533 100.362 52.0533 97.6321C52.0533 95.6536 53.536 94.3253 55.7436 94.3253C57.7548 94.3253 59.2016 95.3963 59.7691 97.2423H60.8995C60.2041 95.1594 58.5172 94.107 55.8699 94.107C52.3573 94.107 50.7577 96.1603 50.7577 98.0671C50.7577 100.312 52.0096 101.372 55.7187 102.266C57.7907 102.752 60.1745 103.666 60.1745 106.408C60.1745 108.399 58.4502 109.843 56.0741 109.843C53.9569 109.843 52.2591 108.717 51.5185 106.899H50.2853L50.29 106.901ZM55.7452 96.7418C54.4714 96.7418 54.4714 97.3655 54.4714 97.6321C54.4714 98.1216 54.4714 98.6782 57.3027 99.347C57.4321 99.3767 57.5599 99.4079 57.6878 99.4406L57.5911 98.5878C57.404 96.9523 56.5076 96.7418 55.7467 96.7418" fill="#2E398E"/>
<path d="M80.8744 110.911H77.3696V103.67H69.1034V110.911H65.5721V93.2549H69.1034V100.855H77.3696V93.2549H80.8744V110.911Z" fill="#2E368F"/>
<path d="M82.0827 112.12H76.1597V104.879H70.3116V112.12H64.3638V92.0474H70.3116V99.6479H76.1597V92.0474H82.0827V112.12ZM78.5779 109.704H79.6677V94.4655H78.5779V102.064H67.8951V94.4655H66.7803V109.704H67.8951V102.462H78.5779V109.704Z" fill="#2E398E"/>
<path d="M12.5552 110.323L7.46649 91.713H9.75642L13.6457 106.87H13.8274L17.7894 91.713H20.3337L24.2957 106.87H24.4774L28.3667 91.713H30.6566L25.5679 110.323H23.2416L19.1342 95.4932H18.9889L14.8815 110.323H12.5552ZM32.7784 110.323H30.4158L37.2493 91.713H39.5755L46.409 110.323H44.0464L38.4851 94.6572H38.3397L32.7784 110.323ZM33.6508 103.054H43.174V105.053H33.6508V103.054ZM59.4852 96.3656C59.3762 95.4447 58.9339 94.7299 58.1585 94.221C57.3831 93.7121 56.432 93.4577 55.3052 93.4577C54.4813 93.4577 53.7604 93.591 53.1425 93.8575C52.5306 94.1241 52.052 94.4906 51.7067 94.9571C51.3675 95.4235 51.1979 95.9536 51.1979 96.5473C51.1979 97.0441 51.316 97.4711 51.5522 97.8286C51.7946 98.1799 52.1035 98.4737 52.4791 98.71C52.8547 98.9402 53.2485 99.131 53.6604 99.2825C54.0724 99.4279 54.451 99.546 54.7963 99.6369L56.6864 100.146C57.1711 100.273 57.7102 100.449 58.3039 100.673C58.9037 100.897 59.4761 101.203 60.0214 101.591C60.5726 101.972 61.027 102.463 61.3844 103.063C61.7418 103.662 61.9206 104.398 61.9206 105.271C61.9206 106.276 61.657 107.185 61.13 107.997C60.609 108.809 59.8457 109.454 58.84 109.932C57.8405 110.411 56.6258 110.65 55.1961 110.65C53.8634 110.65 52.7093 110.435 51.734 110.005C50.7647 109.575 50.0014 108.975 49.4441 108.206C48.8928 107.437 48.5808 106.543 48.5081 105.525H50.8344C50.8949 106.228 51.1312 106.81 51.5432 107.27C51.9612 107.724 52.4882 108.064 53.1243 108.288C53.7665 108.506 54.4571 108.615 55.1961 108.615C56.0564 108.615 56.8288 108.476 57.5133 108.197C58.1979 107.912 58.7401 107.518 59.1399 107.016C59.5398 106.507 59.7397 105.913 59.7397 105.235C59.7397 104.617 59.567 104.114 59.2217 103.726C58.8764 103.338 58.422 103.023 57.8586 102.781C57.2953 102.539 56.6864 102.327 56.0322 102.145L53.7422 101.491C52.2883 101.073 51.1373 100.476 50.2891 99.7005C49.441 98.9251 49.017 97.9103 49.017 96.6563C49.017 95.6144 49.2987 94.7057 49.8621 93.9302C50.4315 93.1487 51.1948 92.5429 52.152 92.1128C53.1152 91.6766 54.1905 91.4586 55.3779 91.4586C56.5774 91.4586 57.6436 91.6736 58.5765 92.1037C59.5095 92.5278 60.2485 93.1094 60.7938 93.8484C61.345 94.5875 61.6358 95.4266 61.6661 96.3656H59.4852ZM65.6258 110.323V91.713H67.8794V100H77.8024V91.713H80.056V110.323H77.8024V102H67.8794V110.323H65.6258Z" fill="white"/>
<path d="M7.42793 14.251L18.2152 14.2183L22.8971 23.172L15.8999 26.535L6.60474 25.2207L7.42793 14.251Z" fill="#2E368F"/>
<path d="M82.7952 14.8047H77.5505L75.519 18.3952L77.5505 20.5889L82.3415 18.3952L82.7952 14.8047Z" fill="#2E368F"/>
<path d="M17.3296 31.5727C23.6002 24.9545 33.0887 20.7356 43.7092 20.7356C56.69 20.7356 67.9808 27.0374 73.7697 36.3201V31.0068L70.4894 29.747L71.2097 19.3028L74.0799 14.8049L69.9188 10.2758L66.0585 11.7553L60.7015 21.6071L57.2513 19.1001L52.4244 6.31104L50.2354 6.44356L43.9789 14.8049L41.6418 17.4787L38.3537 17.4459L35.0501 11.3281L31.0775 12.3774L28.661 16.5994L22.169 18.3939L19.068 22.0764L14.146 21.1612L10.4151 20.3318L7.84887 17.4787L3.37588 17.8186L2.56049 23.676L8.88721 26.4605L10.953 28.0586L15.1048 31.8284L17.3343 31.5727H17.3296Z" fill="#2E368F"/>
<path d="M80.3833 18.2946L77.4616 17.9609L71.2097 19.3033L69.6833 24.983L70.4894 31.9256H77.0624L85.4175 24.8177L80.3833 18.2946Z" fill="#2E368F"/>
<path d="M11.8915 16.9182L9.40482 19.5328C7.96579 18.4461 6.46129 18.3946 5.1922 19.7292C4.22246 20.7488 3.96365 21.9868 5.00199 22.9736C6.07775 23.9964 7.26733 23.8218 9.69013 22.2393C13.0188 20.0379 15.5164 20.0098 17.5744 21.968C19.9863 24.2599 19.2597 27.7725 16.8619 30.2935C13.9526 33.354 10.6957 34.0696 7.77715 31.7528L10.2623 29.1382C11.9368 30.2 13.6829 29.8117 14.9162 28.5146C16.0262 27.3469 16.2788 25.819 15.295 24.8851C14.2192 23.8623 12.9548 23.9309 10.7098 25.3996C7.59318 27.4155 5.1158 28.2012 2.76004 25.9624C0.404279 23.7236 1.04194 20.2687 3.36808 17.8193C6.27731 14.7589 9.34402 15.0255 11.8884 16.9166" fill="#2E368F"/>
<path d="M11.4082 34.4008C9.86165 34.4008 8.3509 33.8427 6.98204 32.7576L5.88601 31.8876L10.0612 27.4957L10.9499 28.0601C12.3811 28.9674 13.4693 28.1832 13.9916 27.6344C14.3471 27.2603 14.5778 26.8315 14.6231 26.4589C14.6667 26.0987 14.5264 25.9179 14.4157 25.8134C14.0727 25.486 13.6019 25.0401 11.4145 26.4714C8.47563 28.3719 5.0519 29.9044 1.8823 26.8908C-0.825811 24.3167 -0.588831 20.1306 2.44513 16.9392C5.50247 13.7244 9.22399 13.3408 12.6555 15.8899L13.8155 16.7521L10.4104 20.3333C13.5535 18.715 16.257 18.9504 18.4584 21.0427C19.8818 22.3959 20.5335 24.2279 20.2934 26.2001C20.0829 27.9338 19.1943 29.7002 17.7911 31.1767C16.1245 32.9306 14.3596 33.9814 12.5464 34.301C12.166 34.3681 11.7871 34.4008 11.4098 34.4008M9.79461 31.49C11.3506 32.1511 13.4475 32.031 15.9358 29.4118C16.9632 28.3313 17.6071 27.081 17.7521 25.8898C17.8956 24.7065 17.5401 23.6993 16.6935 22.8949C14.6418 20.9444 12.3593 22.0077 10.3964 23.3064C8.41483 24.6005 6.13702 25.8181 4.12113 23.9005C2.65716 22.5082 2.71485 20.4767 4.26457 18.8459C5.6615 17.3773 7.44508 17.053 9.18969 17.9011L9.86321 17.1918C7.93463 16.3343 6.06842 16.8378 4.29731 18.7009C2.62442 20.4611 1.70613 23.1926 3.6425 25.0339C5.23899 26.5524 6.84796 26.3731 10.016 24.3245C11.8183 23.1443 14.1522 22.0327 16.1759 23.9581C16.943 24.6878 17.2922 25.6856 17.1597 26.7676C17.0474 27.6874 16.5797 28.6213 15.8423 29.3962C14.3752 30.9397 12.3796 31.4058 10.5383 30.7043L9.79149 31.4885L9.79461 31.49ZM7.30165 19.9981C6.80118 19.9981 6.43012 20.285 6.12143 20.6092C5.292 21.4808 5.69424 21.8627 5.88601 22.0452C6.22277 22.3648 6.60318 22.728 8.99168 21.1674C9.07432 21.1128 9.15695 21.0598 9.23802 21.0068L8.63466 20.5516C8.10145 20.1493 7.66647 19.9965 7.30009 19.9965" fill="#2E368F"/>
<path d="M39.9954 18.2023L36.684 19.4293L33.848 11.7742C33.2088 10.0468 32.3903 7.83913 31.7978 6.09297C32.0301 7.97165 32.2484 10.4022 32.3513 12.3012L32.8689 20.8418L29.269 22.1764L24.0399 15.3539C22.9142 13.8603 21.4955 11.8756 20.4805 10.3134C21.1696 12.0237 21.9772 14.208 22.618 15.9354L25.4539 23.5905L22.1425 24.8175L16.0075 8.26008L21.2382 6.32215L29.9877 18.4455L28.7249 3.54856L33.8605 1.64648L39.9954 18.2039V18.2023Z" fill="#2E368F"/>
<path d="M21.3879 26.4622L14.3643 7.50539L21.7075 4.7848L28.3242 13.9522L27.3701 2.68629L29.9706 1.72278L31.4782 1.16307L34.6182 0L41.6418 18.9568L35.9309 21.0725L33.8215 15.3803L34.2051 21.7117L31.631 22.6658L31.4954 22.7157L28.8309 23.7026L25.0221 18.7338L27.1003 24.3434L21.3895 26.4591L21.3879 26.4622ZM17.6508 9.01457L22.8971 23.1725L23.8091 22.8342L21.4175 16.3781C20.7721 14.6366 19.9738 12.4804 19.2925 10.7904L21.5516 9.61482C22.4559 11.0055 23.8325 12.9559 25.0595 14.582L29.7087 20.6468L29.9379 20.5626L20.7689 7.85774L17.6508 9.01301V9.01457ZM30.0829 4.40906L31.4065 20.0201L31.5344 19.9718L31.0744 12.3775C30.9731 10.5206 30.7595 8.1181 30.5272 6.24877L30.2902 4.32955L30.0829 4.4075V4.40906ZM32.2983 3.58743L33.0092 5.68127C33.597 7.41184 34.4015 9.58363 35.047 11.3282L37.4386 17.7828L38.3506 17.4445L33.1043 3.28653L32.2983 3.58587V3.58743Z" fill="#2E368F"/>
<path d="M46.7899 13.9181L44.3952 18.9897L40.6612 18.536L49.1145 1.77441L53.5095 2.30762L57.5818 20.5878L53.7715 20.1263L52.6848 14.6321L46.7915 13.9165L46.7899 13.9181ZM48.0153 11.2567L52.1313 11.7556L50.8841 5.03132L48.0153 11.2567Z" fill="#2E368F"/>
<path d="M59.2235 22.0781L52.6957 21.286L51.609 15.7919L47.5523 15.2992L45.1591 20.3709L38.6983 19.5867L48.3755 0.395996L54.5603 1.14747L59.222 22.0781H59.2235ZM54.8456 18.9693L55.9386 19.1018L52.4571 3.47049L51.8834 3.40033L53.706 13.2365L46.1179 12.3151L50.315 3.20857L49.8519 3.15244L42.6241 17.485L43.6328 17.6066L46.0275 12.535L53.759 13.472L54.8456 18.9661V18.9693ZM49.9127 10.1979L50.5551 10.2759L50.3602 9.22504L49.9127 10.1979Z" fill="#2E368F"/>
<path d="M70.2851 28.6477L66.9425 26.7098C67.1701 25.4501 67.4882 24.393 68.1679 22.8635C68.9194 21.1096 68.8773 19.7548 67.6893 18.9471C67.2808 18.6805 66.9051 18.4623 66.5075 18.2315L64.7364 17.2041L61.1661 23.3578L58.1119 21.5867L66.9721 6.31396L72.5505 9.5506C73.436 10.0651 73.9989 10.4206 74.6989 10.946C76.7584 12.4957 77.8841 14.6878 76.3546 17.321C75.2118 19.2917 73.3191 19.8499 71.2097 19.3057C72.3805 20.7541 72.2246 22.3506 71.4123 24.1576C70.533 26.1329 70.1651 27.4285 70.2851 28.6508M68.1601 16.1439C68.6918 16.4526 69.0675 16.6709 69.4121 16.8408C70.6936 17.4364 72.0142 17.4037 72.8748 15.921C73.7354 14.4383 73.224 13.4311 72.1186 12.583C71.7896 12.3336 71.4264 12.0935 70.8729 11.7723L68.6372 10.4751L66.0554 14.9247L68.1586 16.1455L68.1601 16.1439Z" fill="#2E368F"/>
<path d="M71.799 31.0075L65.5222 27.3671L65.6812 26.4831C65.9385 25.055 66.3064 23.8966 66.9924 22.3531C67.7532 20.5726 67.22 20.1782 66.9768 20.0129C66.6011 19.7682 66.2425 19.5608 65.8636 19.3394L65.1979 18.9528L61.6276 25.1064L56.3595 22.0491L66.5044 4.5625L73.1897 8.44148C74.0566 8.94506 74.6771 9.33015 75.4644 9.91948C78.4126 12.138 79.1391 15.0675 77.46 17.9612C76.4934 19.6263 75.0185 20.5851 73.2521 20.7535C73.5623 22.4887 72.8639 24.0416 72.5786 24.6792C71.7554 26.5283 71.4685 27.6087 71.5574 28.5239L71.799 31.006V31.0075ZM68.3846 26.0668L69.1938 26.5361C69.4105 25.6256 69.78 24.6761 70.2446 23.6347C71.1302 21.6624 70.7544 20.7753 70.215 20.108L69.7208 19.4953C70.07 20.4058 70.0778 21.6562 69.345 23.3681L69.3388 23.3837C68.882 24.4095 68.5951 25.2093 68.3862 26.0668M59.8596 21.1214L60.7015 21.6094L64.2718 15.4558L67.1499 17.1255C67.5646 17.3656 67.9543 17.5917 68.3893 17.877L68.4096 17.891C68.4189 17.8973 68.4283 17.9035 68.4376 17.9097L68.2412 17.6665C68.0276 17.5465 67.7922 17.4108 67.5209 17.2518L64.3108 15.3903L68.1757 8.72835L71.5184 10.6678C72.0937 11.0015 72.5053 11.2712 72.8966 11.5674C75.1775 13.3183 74.7472 15.2515 73.9848 16.5658C73.5327 17.3454 72.9387 17.8941 72.248 18.1997C73.5717 18.3416 74.5804 17.8333 75.2508 16.6781C76.7522 14.09 74.6287 12.492 73.9318 11.9681C73.316 11.5066 72.8249 11.1886 71.9097 10.6569L67.4383 8.06262L59.8612 21.123L59.8596 21.1214ZM69.9656 15.6881C71.1052 16.2135 71.481 15.7754 71.7678 15.2796C72.2324 14.4798 72.0687 14.1586 71.3406 13.5989C71.0444 13.3728 70.7108 13.1577 70.2321 12.8786L69.1034 12.2238L67.8062 14.4595L68.8025 15.0379C69.2998 15.3264 69.6615 15.5368 69.9656 15.6881Z" fill="#2E368F"/>
<path d="M86.2174 25.8173L74.4479 34.9442L72.2839 32.1534L84.0534 23.0266L80.3833 18.2948L82.5676 16.6001L92.0717 28.856L89.8874 30.5491L86.2174 25.8173Z" fill="#2E368F"/>
<path d="M74.2218 36.7378L70.4894 31.9249L82.2588 22.7981L78.5903 18.0663L82.7967 14.8047L93.8677 29.0811L89.6613 32.3427L85.9913 27.6109L74.2218 36.7378ZM74.0799 32.3786L74.6755 33.1472L86.4449 24.0204L90.115 28.7522L90.2772 28.6274L82.343 18.3952L82.1809 18.52L85.8494 23.2518L74.0799 32.3786Z" fill="#2E368F"/>
<path d="M11.8915 16.9182L9.40482 19.5328C7.96579 18.4461 6.46129 18.3946 5.1922 19.7292C4.22246 20.7488 3.96365 21.9868 5.00199 22.9736C6.07775 23.9964 7.26733 23.8218 9.69013 22.2393C13.0188 20.0379 15.5164 20.0098 17.5744 21.968C19.9863 24.2599 19.2597 27.7725 16.8619 30.2935C13.9526 33.354 10.6957 34.0696 7.77715 31.7528L10.2623 29.1382C11.9368 30.2 13.6829 29.8117 14.9162 28.5146C16.0262 27.3469 16.2788 25.819 15.295 24.8851C14.2192 23.8623 12.9548 23.9309 10.7098 25.3996C7.59318 27.4155 5.1158 28.2012 2.76004 25.9624C0.404279 23.7236 1.04194 20.2687 3.36808 17.8193C6.27731 14.7589 9.34402 15.0255 11.8884 16.9166" fill="white"/>
<path d="M86.2174 25.8173L74.4479 34.9442L72.2839 32.1534L84.0534 23.0266L80.3833 18.2948L82.5676 16.6001L92.0717 28.856L89.8874 30.5491L86.2174 25.8173Z" fill="white"/>
<path d="M21.7059 4.7832L28.5939 9.75042L28.6563 16.5994L21.7059 4.7832Z" fill="#2E368F"/>
<path d="M34.6151 0L42.6256 12.6051L40.6628 16.7866L34.6151 0Z" fill="#2E368F"/>
<path d="M48.3771 0.396973L39.9955 11.7564L42.9468 13.2297L48.3771 0.396973Z" fill="#2E368F"/>
<path d="M66.506 4.56299L56.8241 12.2227L58.0714 19.1014L59.2235 18.7724L66.506 4.56299Z" fill="#2E368F"/>
<path d="M61.4063 22.9402L64.7349 17.2028L66.506 18.2303C66.9051 18.461 67.2808 18.6793 67.6878 18.9459C68.8758 19.7535 68.9179 21.1099 68.1664 22.8638C67.4866 24.3917 67.1686 25.4503 66.941 26.7069C68.0339 27.6081 69.0738 28.5716 70.0529 29.5928L70.0576 29.5975C69.9391 28.3752 70.5315 26.1285 71.4108 24.1532C72.2231 22.3462 72.379 20.7513 71.2082 19.3013C73.3191 19.8455 75.2103 19.2857 76.3531 17.3166C77.881 14.6834 76.7569 12.4913 74.6974 10.9416C73.9958 10.4162 73.433 10.0607 72.5474 9.54621L66.969 6.30957L58.2273 21.378C59.3155 21.8489 60.3757 22.3696 61.4047 22.9387M68.6388 10.4739L70.8745 11.771C71.428 12.0922 71.7912 12.3323 72.1202 12.5817C73.2256 13.4299 73.7354 14.437 72.8748 15.9197C72.0142 17.4024 70.6937 17.4351 69.4121 16.8396C69.0675 16.6696 68.6903 16.4498 68.1602 16.1427L66.057 14.9235L68.6388 10.4739Z" fill="white"/>
<path d="M43.7372 18.3951C44.049 18.3951 44.3608 18.3998 44.6711 18.4076L46.7899 13.919L52.6832 14.6346L53.6981 19.7687C55.0078 20.1382 56.2862 20.581 57.5303 21.0877L53.5079 2.30859L49.1129 1.77539L40.6658 18.5261C41.6777 18.4419 42.702 18.3967 43.7357 18.3967M50.8856 5.03074L52.1313 11.755L48.0153 11.2561L50.884 5.03074H50.8856Z" fill="white"/>
<path d="M25.362 23.3422L22.6165 15.935C21.9757 14.2076 21.1681 12.0233 20.479 10.313C21.4939 11.8752 22.9127 13.8599 24.0383 15.3535L28.8044 21.5711C30.1031 20.9895 31.4439 20.4813 32.819 20.0525L32.3498 12.3008C32.2469 10.4019 32.0286 7.97126 31.7963 6.09257C32.3887 7.83874 33.2073 10.0464 33.8465 11.7738L36.5608 19.0999C37.7317 18.8661 38.9228 18.6899 40.1311 18.5714L33.859 1.64453L28.7234 3.54816L29.9862 18.4451L21.2367 6.32176L16.006 8.25969L22.328 25.3206C23.304 24.6128 24.3159 23.9533 25.362 23.3437" fill="white"/>
<path d="M10.1703 28.2254L9.90997 26.791L12.166 27.304L12.866 28.375L10.1703 28.2254Z" fill="#2E368F"/>
<path d="M74.0706 70.9942C74.0753 71.0862 74.0644 71.1813 74.0706 71.2733C74.1829 73.2253 74.66 75.1819 75.8386 76.7737C77.1638 78.5635 79.9343 79.1747 82.0391 79.393C82.2916 79.4195 82.5395 79.4662 82.7968 79.46C82.605 79.5068 82.4008 79.4896 82.2121 79.5083C80.1105 79.7126 77.1888 80.3612 75.8636 82.1338C74.6147 83.8036 74.1548 85.8117 74.0722 87.8775C74.0722 87.9024 74.0878 87.957 74.0441 87.9445C74.0238 87.9383 74.0379 87.6561 74.0348 87.6093C73.8944 85.6121 73.4065 83.5432 72.1046 81.9732C70.6516 80.2224 67.8109 79.6923 65.6454 79.5068C65.5534 79.499 65.4583 79.4756 65.3679 79.4585L66.2207 79.3914L67.0626 79.2745L67.9606 79.0983L68.8773 78.8644C70.1714 78.4544 71.4436 77.8838 72.2683 76.7706C73.4844 75.1289 73.9849 73.046 74.0363 71.0207L74.0753 70.9927L74.0706 70.9942Z" fill="white"/>
<path d="M71.0507 86.382C71.3937 86.6268 71.8177 86.725 72.2246 86.8092L72.6705 86.8715C72.1888 86.9292 71.6899 87.0041 71.2533 87.2286C70.5034 87.6152 70.2774 88.4867 70.215 89.2678C70.1823 89.2725 70.1978 89.2242 70.1963 89.2008C70.1932 89.1244 70.201 89.048 70.1932 88.9732C70.1433 88.5008 69.9032 87.8163 69.554 87.4843C69.1065 87.0602 68.3659 86.9479 67.7797 86.8715L68.2256 86.8092C68.6497 86.7078 69.1361 86.6049 69.4776 86.3165C69.9671 85.9034 70.2072 85.0786 70.1963 84.4565L70.2509 84.7185C70.2945 85.314 70.5471 86.025 71.0507 86.3836" fill="white"/>
<path d="M78.2006 72.599C78.447 72.981 78.8804 73.1275 79.2998 73.2351L79.8221 73.3162C79.4074 73.3598 78.9537 73.4331 78.5904 73.6483C78.21 73.8743 78.0229 74.2984 77.9091 74.7116L77.828 75.2339C77.8202 74.9501 77.7703 74.6695 77.6705 74.4044C77.3572 73.575 76.7943 73.4612 75.9805 73.3318C75.9493 73.3271 75.8651 73.324 75.8527 73.2959C75.9119 73.2928 75.9727 73.3022 76.032 73.2928C76.3828 73.2445 76.824 73.1369 77.1233 72.9467C77.6113 72.6349 77.8062 71.9489 77.8265 71.397L77.9699 72.1251C78.0416 72.2841 78.104 72.4509 78.1975 72.5975" fill="white"/>
<path d="M69.384 82.6809C69.5103 82.8072 69.6537 82.8805 69.8221 82.9428L70.427 83.0753C70.1745 83.1174 69.9157 83.1533 69.6787 83.2578C69.2172 83.4604 69.0317 83.9812 69.0067 84.4567L68.8633 83.8814C68.631 83.2687 68.1477 83.1595 67.5505 83.0753L68.1445 82.9506C68.3535 82.8695 68.5811 82.7557 68.7043 82.5718C68.8789 82.3114 68.9631 81.9855 68.988 81.6753L69.1096 82.235C69.1782 82.4003 69.2562 82.5531 69.3825 82.6809" fill="white"/>
</svg>
