<svg width="27" height="32" viewBox="0 0 27 32" fill="none" xmlns="http://www.w3.org/2000/svg">
<path d="M22.0781 16.6641C22.0781 16.8047 21.8672 20.9531 26.4375 23.1328C25.5938 25.7344 22.6406 31.5 19.1953 31.5C17.2266 31.5 16.1016 30.2344 13.8516 30.2344C11.5312 30.2344 10.2656 31.5 8.50781 31.5C5.13281 31.6406 1.89844 25.3125 0.984375 22.7109C0.28125 20.7422 0 18.8438 0 17.0156C0 10.7578 4.14844 7.73438 8.08594 7.66406C9.98438 7.66406 12.375 9 13.4297 9C14.4141 9 17.1562 7.38281 19.6875 7.59375C22.2891 7.80469 24.2578 8.78906 25.5938 10.6875C23.2734 12.1641 22.0781 14.0625 22.0781 16.6641ZM18.1406 5.13281C16.7344 6.75 15.0469 7.66406 13.2188 7.52344C13.0781 5.625 13.7812 3.86719 15.0469 2.46094C16.1719 1.19531 18.1406 0.140625 19.8281 0C19.8281 0.773438 20.0391 2.88281 18.1406 5.13281Z" fill="#181818"/>
</svg>
