<svg width="44" height="61" viewBox="0 0 44 61" fill="none" xmlns="http://www.w3.org/2000/svg">
<path d="M29.6023 44.1582C40.3614 47.8367 42.3463 55.1389 41.7595 60.2588H41.7584H39.8731C39.0881 56.3715 35.9285 51.4741 25.5201 49.5898C17.6365 48.1631 12.4885 45.1751 9.1226 41.8413C2.40108 36.2089 0.615551 28.4377 0.154843 24.1623C0.0734737 23.4695 0.0230481 22.7664 0.00814962 22.0542C-0.010187 21.398 0.00814962 21.0271 0.00814962 21.0271C0.225897 11.8143 6.63914 3.57739 15.3112 0.947784C26.437 -2.42596 38.2824 3.48608 42.1881 14.2522C44.2969 20.0661 44.0023 27.2598 40.0382 32.3718C32.1557 42.0217 16.463 36.2032 17.1735 23.619C17.3191 21.051 18.8983 17.5335 20.9715 15.9082C24.9013 12.8289 32.0125 14.0239 32.3906 19.6073C32.4159 19.9816 32.3735 20.3651 32.3906 20.7394C32.2394 20.7794 32.2818 20.7041 32.2417 20.6573C30.926 19.129 28.8735 17.9421 26.8725 19.032C25.3368 19.8698 25.0377 22.3738 25.6909 23.8838C27.2381 27.4607 32.7196 28.4125 35.666 25.9735C38.3592 23.7457 39.1294 20.0866 38.5071 16.7539C36.6665 6.89749 25.7459 1.66796 16.4504 4.50871C6.3595 7.5937 0.848195 18.927 5.2318 28.8485C5.44496 29.3302 5.71084 29.7981 5.96068 30.2592C6.18301 30.1097 5.95495 29.9807 5.93203 29.8346C5.27306 25.6483 5.77158 21.6114 7.45741 17.8245C10.7305 10.4698 17.8978 6.48662 26.0702 8.81948C28.085 9.3947 29.9278 10.3363 31.2469 12.0688L31.6446 12.8392C31.3443 12.6829 31.0727 12.4318 30.7873 12.2674C27.6369 10.4493 23.2212 10.6239 20.0157 12.3621C16.9604 14.0171 15.0946 16.6661 14.1709 19.7419C13.8626 20.8022 13.1074 23.9591 13.803 27.5314C15.0705 33.31 18.9614 38.1823 23.8687 41.5001C25.511 42.5033 27.4077 43.4084 29.6023 44.1582Z" fill="#FCEE23"/>
</svg>
