<svg width="32" height="32" viewBox="0 0 32 32" fill="none" xmlns="http://www.w3.org/2000/svg">
<path fill-rule="evenodd" clip-rule="evenodd" d="M17.5209 6.99969C20.774 6.99969 22.567 7.00041 23.9496 8.11493C25.3334 9.2321 25.7029 10.9718 26.3734 14.1296L26.3744 14.1306L26.3764 14.1442L28.9408 26.2516C29.0061 26.5636 29.0298 26.7681 28.9672 27.3015C28.9619 27.3467 28.9591 27.38 28.9564 27.404C28.9778 27.5746 28.9568 27.7641 28.8676 27.9587C28.4902 28.7613 27.6634 29.2922 26.7074 29.3522C25.7447 29.4136 24.8755 28.9812 24.3822 28.1999C24.3009 28.0706 24.1354 27.9869 23.9408 27.9763C23.7355 27.9656 23.5485 28.0357 23.4418 28.1677L22.7064 29.0876C22.0731 29.8783 21.0967 30.3317 20.0287 30.3317L20.0258 30.3337C18.958 30.3336 17.9823 29.88 17.349 29.0895L17.2318 28.9431C16.9545 28.5964 16.5057 28.3972 16.0004 28.3972C15.4952 28.3972 15.0472 28.5974 14.7699 28.944L14.6556 29.0876C14.021 29.8795 13.0448 30.3336 11.9769 30.3337C10.9089 30.3337 9.93254 29.8802 9.2992 29.0895L8.56385 28.1696C8.45853 28.0376 8.27146 27.9656 8.06483 27.9763C7.87022 27.9869 7.70478 28.0706 7.62342 28.1999C7.13012 28.9812 6.25949 29.4135 5.29823 29.3522C4.34223 29.2936 3.51664 28.7625 3.14198 27.9665C3.05138 27.7692 3.02885 27.5798 3.05018 27.4079C3.04908 27.3974 3.04757 27.3849 3.04627 27.3708C3.04445 27.3509 3.04253 27.3269 3.03944 27.2975C2.97677 26.7669 3.00047 26.5626 3.0658 26.2546L5.63026 14.1442L5.63319 14.1306L5.63514 14.1198C6.30431 10.9668 6.67331 9.22962 8.05702 8.11493C9.4396 7.00037 11.2314 6.99969 14.4857 6.99969H17.5209ZM14.4857 8.99969C11.597 8.99969 10.1462 8.99986 9.31287 9.67157C8.48222 10.3422 8.18354 11.7466 7.59022 14.5466C7.59022 14.5466 5.05429 26.526 5.02381 26.6677C4.999 26.7826 4.98061 27.0511 4.97987 27.0622L5.04237 27.2253C5.04967 27.2291 5.27664 27.3479 5.42225 27.3571C5.55554 27.3651 5.79798 27.3467 5.93397 27.1325C6.36059 26.4579 7.11655 26.0269 7.95643 25.9802C8.80576 25.9322 9.61933 26.2842 10.1273 26.9216L10.8637 27.8415C11.1116 28.1506 11.5285 28.3345 11.9789 28.3347C12.4296 28.3347 12.8471 28.1502 13.0951 27.8395L13.2103 27.696C13.8717 26.8708 14.8887 26.3972 16.0033 26.3972L16.0004 26.3962C17.115 26.3962 18.1343 26.8691 18.7943 27.6931L18.9115 27.8395C19.1581 28.1475 19.5752 28.3316 20.0258 28.3317C20.4764 28.3317 20.894 28.1479 21.142 27.8386L21.8783 26.9186C22.3862 26.2828 23.1991 25.9304 24.0482 25.9782C24.8882 26.0249 25.645 26.4559 26.0717 27.1306C26.2077 27.3452 26.45 27.3628 26.5834 27.3561C26.7314 27.3468 26.8713 27.2957 26.9633 27.2224C27.0313 27.168 27.0316 27.0729 27.0316 27.0729C27.0316 27.0729 27.0077 26.7859 26.9838 26.6696L24.4193 14.5602C23.8233 11.7482 23.5244 10.3422 22.6937 9.67157C21.8603 8.99993 20.4096 8.99969 17.5209 8.99969H14.4857ZM18.6674 17.6667C19.2192 17.6669 19.6674 18.1148 19.6674 18.6667C19.6674 19.2186 19.2192 19.6665 18.6674 19.6667H10.6674C10.1154 19.6667 9.66737 19.2187 9.66737 18.6667C9.66737 18.1147 10.1154 17.6667 10.6674 17.6667L18.6674 17.6667ZM16.0004 12.3337C16.5523 12.3337 17.0004 12.7817 17.0004 13.3337C17.0002 13.8855 16.5522 14.3336 16.0004 14.3337L12.0004 14.3337C11.4485 14.3337 11.0006 13.8855 11.0004 13.3337C11.0004 12.7817 11.4484 12.3337 12.0004 12.3337L16.0004 12.3337ZM23.9945 1.66669C26.6984 1.66669 28.1881 1.66656 29.264 2.78387C30.324 3.88516 30.3236 5.41905 30.3236 8.20282C30.3236 8.5841 30.3268 8.93106 30.3295 9.24969C30.3481 11.2653 30.3573 12.3748 29.4096 13.36C29.2138 13.5638 28.9512 13.6664 28.6889 13.6667C28.4397 13.6665 28.19 13.5729 27.9955 13.3864C27.5971 13.0037 27.5856 12.3706 27.9681 11.9733C28.3333 11.5947 28.3455 11.0207 28.3295 9.2663C28.329 9.20374 28.3281 9.13978 28.3275 9.07489C28.3251 8.80529 28.3226 8.5153 28.3226 8.20282C28.3226 5.93889 28.3226 4.69062 27.8226 4.17059C27.356 3.68662 26.3119 3.66669 23.9935 3.66669L8.00623 3.66669C5.68905 3.66669 4.64343 3.68661 4.17811 4.17059C3.67691 4.69201 3.67713 5.93902 3.67713 8.20282C3.67713 8.59336 3.67429 8.94789 3.6703 9.27313C3.6543 11.0225 3.66665 11.5947 4.03065 11.9733C4.41323 12.372 4.40061 13.0038 4.0033 13.3864C3.60597 13.769 2.97286 13.7574 2.59022 13.36C1.64232 12.3761 1.65261 11.2008 1.67127 9.25555C1.67181 9.19079 1.67262 9.12452 1.67323 9.05731C1.67562 8.7927 1.67811 8.50875 1.67811 8.20282C1.67811 5.41885 1.67831 3.88387 2.73963 2.78387C3.81428 1.66656 5.30426 1.66669 8.00819 1.66669L23.9945 1.66669Z" fill="#3748C8"/>
</svg>
