<svg width="32" height="32" viewBox="0 0 32 32" fill="none" xmlns="http://www.w3.org/2000/svg">
<path d="M5.99854 21.6667C6.54251 21.6667 6.9985 22.1186 6.99854 22.6706C7.05453 23.2838 8.71322 24.9432 9.3374 25.0036H9.3667C9.90657 25.0182 10.3362 25.4597 10.3364 26.0036C10.3364 26.5476 9.8855 27.0036 9.3335 27.0036C8.72021 27.0596 7.06085 28.7183 7.00049 29.3424V29.3717C6.98582 29.9116 6.54437 30.3413 6.00049 30.3415H5.99854C5.44671 30.3412 4.99854 29.8904 4.99854 29.3385C4.94237 28.7239 3.28488 27.0655 2.66064 27.0036H2.63135C2.09135 26.9889 1.66162 26.5476 1.66162 26.0036C1.66184 25.4597 2.11144 25.0062 2.66064 25.0036C3.28483 24.9429 4.93784 23.2899 4.99854 22.6657V22.6364C5.0132 22.0965 5.45471 21.6669 5.99854 21.6667ZM16.0005 2.99966C16.5522 2.99984 17.0003 3.44792 17.0005 3.99966C17.0005 9.44766 22.5525 14.9997 28.0005 14.9997C28.5522 14.9998 29.0003 15.4479 29.0005 15.9997C29.0005 16.5516 28.5523 16.9995 28.0005 16.9997C22.5526 16.9997 17.0007 22.5518 17.0005 27.9997C17.0005 28.5516 16.5523 28.9995 16.0005 28.9997C15.4485 28.9997 15.0005 28.5517 15.0005 27.9997C15.0003 22.5519 9.44828 16.9999 4.00049 16.9997C3.44849 16.9997 3.00049 16.5517 3.00049 15.9997C3.00066 15.4478 3.4486 14.9997 4.00049 14.9997C9.44838 14.9994 15.0005 9.44756 15.0005 3.99966C15.0007 3.44781 15.4486 2.99966 16.0005 2.99966ZM5.99854 24.8561C5.66265 25.2719 5.26689 25.6677 4.85107 26.0036C5.26702 26.3395 5.66256 26.7361 5.99854 27.152C6.33454 26.736 6.73097 26.3396 7.14697 26.0036C6.73103 25.6676 6.33449 25.2721 5.99854 24.8561ZM16.0005 8.55728C14.5818 11.7933 11.7931 14.5797 8.55713 15.9997C11.7931 17.4183 14.5805 20.207 16.0005 23.443C17.4192 20.207 20.2069 17.4197 23.4429 15.9997C20.2069 14.581 17.4205 11.7932 16.0005 8.55728ZM25.3335 1.66666C25.8855 1.66666 26.3335 2.11466 26.3335 2.66666C26.3335 2.87066 26.6885 3.60629 27.5405 4.45963C28.3939 5.31296 29.1282 5.66666 29.3335 5.66666C29.8855 5.66666 30.3335 6.11466 30.3335 6.66666C30.3335 7.21866 29.8855 7.66666 29.3335 7.66666C29.1295 7.66666 28.3939 8.02169 27.5405 8.87369C26.6872 9.72702 26.3335 10.4627 26.3335 10.6667C26.3335 11.2187 25.8855 11.6667 25.3335 11.6667C24.7815 11.6667 24.3335 11.2187 24.3335 10.6667C24.3335 10.4627 23.9785 9.72702 23.1265 8.87369C22.2731 8.02035 21.5388 7.66666 21.3335 7.66666C20.7815 7.66666 20.3335 7.21866 20.3335 6.66666C20.3335 6.11466 20.7815 5.66666 21.3335 5.66666C21.5375 5.66666 22.2731 5.31163 23.1265 4.45963C23.9798 3.60629 24.3335 2.87066 24.3335 2.66666C24.3335 2.11466 24.7815 1.66666 25.3335 1.66666ZM25.3335 4.9733C25.0375 5.3573 24.7405 5.67502 24.5405 5.87369C24.3405 6.07235 24.0241 6.37066 23.6401 6.66666C24.0241 6.96266 24.3419 7.25963 24.5405 7.45963C24.7392 7.65963 25.0375 7.97602 25.3335 8.36002C25.6295 7.97602 25.9265 7.65829 26.1265 7.45963C26.3265 7.26096 26.6429 6.96266 27.0269 6.66666C26.6429 6.37066 26.3251 6.07369 26.1265 5.87369C25.9278 5.67369 25.6295 5.3573 25.3335 4.9733Z" fill="#3748C8"/>
</svg>
