<svg width="20" height="20" viewBox="0 0 20 20" fill="none" xmlns="http://www.w3.org/2000/svg">
<path fill-rule="evenodd" clip-rule="evenodd" d="M5.84724 3.17093C5.71882 3.13164 5.56146 3.12508 4.98056 3.12508C4.57566 3.12508 4.30815 3.12553 4.09956 3.1421C3.90051 3.15792 3.79851 3.18598 3.72374 3.22023C3.48819 3.3281 3.25469 3.58522 3.16993 3.83004C3.10517 4.01712 3.11132 4.2132 3.18464 4.97313C3.53878 8.64314 4.71364 11.4111 6.6515 13.349C8.58936 15.2868 11.3573 16.4617 15.0273 16.8158C15.7873 16.8891 15.9833 16.8953 16.1704 16.8305C16.4152 16.7458 16.6724 16.5123 16.7802 16.2767C16.8145 16.2019 16.8425 16.1 16.8584 15.9009C16.8749 15.6923 16.8754 15.4248 16.8754 15.0199C16.8754 14.439 16.8688 14.2816 16.8295 14.1532C16.7721 13.9654 16.663 13.7976 16.5147 13.6688C16.4133 13.5807 16.2722 13.5108 15.7413 13.2749L14.9864 12.9393C14.4115 12.6838 14.2534 12.622 14.1075 12.6081C13.9447 12.5927 13.7805 12.6155 13.6281 12.6749C13.4915 12.728 13.3563 12.8306 12.873 13.2334C12.8511 13.2517 12.8294 13.2697 12.808 13.2876C12.4244 13.6079 12.1206 13.8614 11.743 13.9994C11.403 14.1236 10.9776 14.1671 10.6195 14.1143C10.2223 14.0558 9.91128 13.8893 9.52462 13.6823C9.50557 13.6721 9.48633 13.6618 9.46688 13.6514C7.9861 12.8601 7.14037 12.0144 6.34904 10.5336C6.33865 10.5141 6.32835 10.4949 6.31815 10.4758C6.11115 10.0892 5.94466 9.77818 5.88612 9.38093C5.83335 9.02286 5.87688 8.59747 6.00108 8.25751C6.13904 7.87987 6.3926 7.5761 6.71285 7.19246C6.73072 7.17105 6.74879 7.14939 6.76707 7.12746C7.16983 6.64415 7.27243 6.50894 7.32561 6.37238C7.38495 6.21998 7.4078 6.0558 7.39231 5.89299C7.37844 5.7471 7.31665 5.58902 7.06113 5.0141L6.72558 4.25912C6.48966 3.72829 6.41975 3.58715 6.33169 3.48576C6.20291 3.33749 6.03504 3.22839 5.84724 3.17093ZM5.06228 1.87504C5.52227 1.8747 5.88225 1.87444 6.21299 1.97564C6.62484 2.10166 6.99299 2.34091 7.27542 2.66608C7.50222 2.92721 7.64819 3.25628 7.8347 3.67677C7.8456 3.70135 7.85664 3.72624 7.86785 3.75145L8.20339 4.50643C8.21549 4.53364 8.22745 4.5605 8.23926 4.58702C8.44202 5.04225 8.60098 5.39914 8.6367 5.77463C8.67066 6.13169 8.62056 6.49174 8.49041 6.82597C8.35354 7.17744 8.10319 7.47737 7.78385 7.85996C7.76525 7.88225 7.74641 7.90482 7.72734 7.92769C7.32752 8.40748 7.22923 8.5385 7.17518 8.68643C7.12235 8.83105 7.10032 9.04637 7.12276 9.19869C7.14618 9.35762 7.20151 9.47663 7.45149 9.94443C8.12627 11.2071 8.79336 11.8742 10.056 12.549C10.5238 12.799 10.6428 12.8543 10.8018 12.8777C10.9541 12.9001 11.1694 12.8781 11.314 12.8253C11.462 12.7712 11.593 12.6729 12.0728 12.2731C12.0956 12.2541 12.1182 12.2352 12.1405 12.2166C12.5231 11.8973 12.823 11.6469 13.1745 11.5101C13.5087 11.3799 13.8688 11.3298 14.2258 11.3638C14.6013 11.3995 14.9582 11.5584 15.4135 11.7612C15.44 11.773 15.4668 11.785 15.494 11.7971L16.249 12.1326C16.2742 12.1438 16.2991 12.1549 16.3237 12.1658C16.7442 12.3523 17.0733 12.4982 17.3344 12.725C17.6596 13.0075 17.8988 13.3756 18.0248 13.7875C18.126 14.1182 18.1258 14.4782 18.1254 14.9382C18.1254 14.9651 18.1254 14.9923 18.1254 15.0199V15.0435C18.1254 15.4185 18.1254 15.7359 18.1044 15.9999C18.0823 16.2789 18.0344 16.5403 17.9167 16.7972C17.6667 17.3431 17.1467 17.8153 16.5793 18.0117C16.1031 18.1766 15.6178 18.1293 15.0088 18.0699C14.9753 18.0666 14.9415 18.0633 14.9073 18.06C11.0352 17.6864 7.96467 16.4299 5.76761 14.2328C3.57055 12.0358 2.31406 8.96525 1.94042 5.09319C1.93712 5.05896 1.93382 5.02513 1.93056 4.99167C1.87117 4.38265 1.82384 3.89736 1.98871 3.42111C2.18514 2.85374 2.65736 2.33376 3.20325 2.08375C3.46016 1.96608 3.72157 1.91819 4.00057 1.89603C4.26452 1.87506 4.58193 1.87507 4.957 1.87508L4.98056 1.87508C5.00815 1.87508 5.03538 1.87506 5.06228 1.87504Z" fill="#181818"/>
</svg>
