<svg width="32" height="32" viewBox="0 0 32 32" fill="none" xmlns="http://www.w3.org/2000/svg">
<path d="M15.9997 1.6665C23.9157 1.6665 30.3335 8.08358 30.3337 15.9995C30.3337 23.9156 23.9158 30.3335 15.9997 30.3335C8.08376 30.3333 1.66669 23.9155 1.66669 15.9995C1.66686 8.08369 8.08387 1.66668 15.9997 1.6665ZM15.9997 3.6665C9.18844 3.66668 3.66686 9.18826 3.66669 15.9995C3.66669 22.8109 9.18833 28.3333 15.9997 28.3335C22.8112 28.3335 28.3337 22.811 28.3337 15.9995C28.3335 9.18815 22.8111 3.6665 15.9997 3.6665ZM15.9997 9.6665C16.552 9.6665 16.9997 10.1142 16.9997 10.6665L16.9997 15.5854L19.3737 17.9595C19.7642 18.35 19.7642 18.983 19.3737 19.3735C18.9832 19.7641 18.3502 19.7641 17.9597 19.3735L15.2927 16.7065C15.1053 16.519 14.9997 16.2646 14.9997 15.9995L14.9997 10.6665C14.9997 10.1143 15.4476 9.66668 15.9997 9.6665Z" fill="#FC4F00"/>
</svg>
