<svg width="32" height="32" viewBox="0 0 32 32" fill="none" xmlns="http://www.w3.org/2000/svg">
<path fill-rule="evenodd" clip-rule="evenodd" d="M15.9993 1.66669C22.3129 1.66669 27.6661 6.17165 27.6663 11.9997V13.6335C27.6932 13.6674 27.7199 13.6992 27.7435 13.7292C27.7888 13.7866 27.8264 13.8347 27.8489 13.862L27.8733 13.8913C28.4813 14.6298 28.9731 15.2277 29.3382 15.7458C29.7149 16.2808 30.0008 16.7903 30.1585 17.3679C30.3913 18.2202 30.3913 19.1131 30.1585 19.9655C29.941 20.7615 29.5027 21.4465 29.0657 22.0182C28.8014 22.3643 28.481 22.7359 28.1985 23.0632C28.044 23.2422 27.9007 23.4083 27.7845 23.5495C27.7588 23.5807 27.7329 23.6121 27.7073 23.6432C27.6917 23.6624 27.6751 23.6808 27.6595 23.6999C27.6084 25.1816 27.2443 26.3991 26.5726 27.3708C25.8452 28.4228 24.8228 29.0922 23.6839 29.5192C21.513 30.3334 18.6961 30.3339 16.1253 30.3337H15.9993C15.4473 30.3335 14.9995 29.8857 14.9993 29.3337C14.9993 28.7815 15.4472 28.3339 15.9993 28.3337C18.7281 28.3337 21.1882 28.3197 22.9817 27.6472C23.8428 27.3244 24.4877 26.8686 24.9271 26.2331C25.1557 25.9023 25.3446 25.497 25.4749 24.9948C25.3551 25.001 25.2346 25.0006 25.1146 24.9909C24.6378 24.9522 24.1824 24.7444 23.6985 24.5231C23.6615 24.5061 23.6238 24.4886 23.5862 24.4714C23.5593 24.4592 23.53 24.4461 23.4993 24.4323C23.0244 24.2202 22.1295 23.8202 21.7884 22.8112C21.6644 22.4441 21.6654 22.0514 21.6663 21.6862V15.6472C21.6654 15.282 21.6644 14.8891 21.7884 14.5222C22.1295 13.5132 23.0244 13.1132 23.4993 12.9011C23.53 12.8873 23.5593 12.8743 23.5862 12.862C23.6238 12.8449 23.6615 12.8273 23.6985 12.8102C24.1823 12.5889 24.6378 12.3811 25.1146 12.3425C25.2987 12.3276 25.4838 12.3317 25.6663 12.3542V11.9997C25.6661 7.51871 21.4676 3.66669 15.9993 3.66669C10.5312 3.66684 6.33351 7.5188 6.3333 11.9997V12.3561C6.50568 12.3339 6.68886 12.3267 6.88408 12.3425C7.36103 12.381 7.81721 12.5898 8.30108 12.8112C8.33801 12.8281 8.37513 12.845 8.4124 12.862C8.44148 12.8753 8.47127 12.8889 8.50029 12.902C8.86371 13.0668 9.22022 13.2283 9.5042 13.4753C10.3343 14.1975 10.3338 15.1507 10.3333 15.7018L10.3333 21.6315C10.3338 22.1827 10.3346 23.1368 9.5042 23.8591C9.22018 24.1061 8.86377 24.2674 8.50029 24.4323C8.47125 24.4454 8.4415 24.4582 8.4124 24.4714C8.37501 24.4885 8.3381 24.5061 8.30108 24.5231C7.8172 24.7445 7.36103 24.9532 6.88408 24.9919C5.49111 25.1043 4.71078 24.1538 4.25225 23.5954C4.23954 23.5799 4.22639 23.5643 4.21416 23.5495C4.09799 23.4084 3.95547 23.2421 3.80108 23.0632C3.51859 22.7359 3.19737 22.3644 2.93291 22.0182C2.49611 21.4466 2.05854 20.7614 1.84112 19.9655C1.60832 19.1132 1.60828 18.2202 1.84112 17.3679C1.99893 16.7904 2.28462 16.2808 2.66143 15.7458C3.02639 15.2277 3.5183 14.6307 4.12627 13.8923L4.15069 13.862C4.17553 13.8318 4.20157 13.7998 4.22881 13.7663C4.26162 13.7259 4.29684 13.6835 4.3333 13.6393L4.3333 11.9997C4.3335 6.17175 9.68586 1.66684 15.9993 1.66669ZM6.72295 14.3356C6.55787 14.3223 6.45207 14.3603 6.32061 14.4587C6.14259 14.592 5.97559 14.7922 5.69463 15.1335C5.05637 15.9087 4.61271 16.4478 4.29619 16.8972C3.98662 17.3366 3.84216 17.6304 3.76983 17.8952C3.63128 18.4025 3.63126 18.9318 3.76983 19.4391C3.88806 19.8717 4.14845 20.3158 4.52178 20.8044C4.76191 21.1185 4.99498 21.3864 5.24053 21.6696C5.40512 21.8594 5.57606 22.0566 5.75908 22.279C6.01883 22.5944 6.18115 22.7758 6.34209 22.8903C6.46123 22.975 6.56153 23.0107 6.72295 22.9977C6.8024 22.9913 6.91271 22.9575 7.5833 22.652C8.09477 22.4191 8.15719 22.3793 8.1917 22.3493C8.25104 22.2977 8.27534 22.2548 8.29522 22.1745C8.3246 22.0555 8.3333 21.8971 8.3333 21.5944V15.7399C8.3333 15.4373 8.32459 15.2788 8.29522 15.1599C8.2753 15.0792 8.25132 15.0359 8.1917 14.9841C8.15719 14.9539 8.09477 14.9152 7.5833 14.6823C6.91255 14.3768 6.80241 14.3421 6.72295 14.3356ZM25.2757 14.3356C25.1962 14.3421 25.0853 14.3772 24.4153 14.6823C24.1226 14.8156 23.9581 14.8921 23.8314 14.9841C23.7346 15.0542 23.7028 15.1034 23.6829 15.1618C23.6813 15.1691 23.6769 15.1955 23.6731 15.2565C23.6667 15.3596 23.6663 15.4969 23.6663 15.739V21.5944C23.6663 21.8366 23.6667 21.9738 23.6731 22.0768C23.6769 22.1379 23.6813 22.1643 23.6829 22.1716C23.7028 22.23 23.7346 22.2792 23.8314 22.3493C23.9581 22.4412 24.1226 22.5178 24.4153 22.6511C25.0853 22.9562 25.1962 22.9913 25.2757 22.9977C25.4189 23.0093 25.5573 22.9774 25.6673 22.9157C25.7178 22.8873 25.7859 22.8301 26.2405 22.278C26.4236 22.0555 26.5944 21.8585 26.7591 21.6686C27.0044 21.3856 27.2369 21.1183 27.4769 20.8044C27.8503 20.3156 28.1107 19.8708 28.2288 19.4382C28.3674 18.931 28.3674 18.4024 28.2288 17.8952C28.1565 17.6304 28.013 17.3366 27.7034 16.8972C27.3869 16.4477 26.9434 15.908 26.305 15.1325C26.2136 15.0217 26.1531 14.9451 26.1009 14.8776C26.0575 14.8216 26.0177 14.7737 25.971 14.7175C25.93 14.6777 25.8924 14.6348 25.8587 14.5886C25.7674 14.4896 25.708 14.4405 25.6673 14.4177C25.5573 14.356 25.4189 14.324 25.2757 14.3356Z" fill="white"/>
</svg>
