<svg width="32" height="32" viewBox="0 0 32 32" fill="none" xmlns="http://www.w3.org/2000/svg">
<path fill-rule="evenodd" clip-rule="evenodd" d="M25.9594 3.29317C26.2118 3.04078 26.5794 2.94234 26.9243 3.03438C27.2692 3.12658 27.5395 3.39566 27.6323 3.74043C30.0043 12.5509 29.0588 18.2364 26.5649 21.7463C24.0727 25.2537 20.2162 26.3331 17.3335 26.3332C15.6959 26.3332 14.1572 25.8954 12.8325 25.1291C12.3545 24.8526 12.191 24.2409 12.4672 23.7629C12.7437 23.2849 13.3554 23.1214 13.8335 23.3977C14.862 23.9927 16.0568 24.3332 17.3335 24.3332C19.7839 24.3331 22.9274 23.4136 24.935 20.5881C26.8018 17.9607 27.8445 13.4642 26.1313 5.98457C24.5033 7.60166 21.9549 9.68334 17.4751 10.3234C13.1479 10.9416 10.3336 13.6847 10.3335 17.3332C10.3335 18.1721 10.4809 18.9752 10.7504 19.7189C11.4762 19.4678 12.2554 19.2382 13.0903 19.0295C17.0859 18.0306 19.9011 15.5241 21.8569 12.8205C22.1805 12.3733 22.805 12.2726 23.2524 12.5959C23.6998 12.9196 23.8005 13.5449 23.477 13.9924C21.3351 16.9533 18.1579 19.8243 13.5756 20.9699C10.6254 21.7075 8.63051 22.6559 7.30513 23.8195C6.00776 24.9587 5.28731 26.3612 4.98677 28.1643C4.89598 28.709 4.38018 29.0773 3.83541 28.9865C3.29071 28.8957 2.92235 28.3799 3.01314 27.8352C3.37928 25.6386 4.29763 23.7988 5.9858 22.3166C6.79169 21.6091 7.75756 20.9973 8.89302 20.466C8.53054 19.4897 8.33345 18.4335 8.33345 17.3332C8.33362 12.4083 12.1859 9.05908 17.1919 8.34395C21.718 7.69734 23.8855 5.44352 25.4331 3.83418C25.6162 3.64368 25.7907 3.46187 25.9594 3.29317Z" fill="#FC4F00"/>
</svg>
