<svg width="20" height="20" viewBox="0 0 20 20" fill="none" xmlns="http://www.w3.org/2000/svg">
<path d="M10 1.04175C14.3962 1.04175 18.125 4.67504 18.125 9.10522C18.1249 11.3663 17.1669 13.2674 15.8223 14.8367C14.4828 16.3999 12.7378 17.6608 11.0986 18.6638L11.0889 18.6697L11.0801 18.6746C10.7507 18.8605 10.3783 18.9587 10 18.9587C9.6217 18.9587 9.24928 18.8605 8.91992 18.6746L8.90918 18.6687L8.89844 18.6619C7.26527 17.6509 5.52067 16.3942 4.18066 14.8357C2.83488 13.2705 1.8751 11.3738 1.875 9.10522C1.875 4.67504 5.60376 1.04175 10 1.04175ZM10 2.29175C6.27864 2.29175 3.125 5.38076 3.125 9.10522C3.12509 10.9929 3.91714 12.6109 5.12891 14.0203C6.34335 15.4327 7.95696 16.6082 9.54395 17.5916C9.68303 17.6679 9.84027 17.7087 10 17.7087C10.1602 17.7087 10.3177 17.6683 10.457 17.5916C12.0447 16.6192 13.659 15.44 14.873 14.0232C16.0844 12.6094 16.8749 10.9861 16.875 9.10522C16.875 5.38076 13.7214 2.29175 10 2.29175ZM10 5.62476C11.956 5.62476 13.542 7.21074 13.542 9.16675C13.542 11.1228 11.956 12.7087 10 12.7087C8.04399 12.7087 6.45801 11.1228 6.45801 9.16675C6.45801 7.21074 8.04399 5.62476 10 5.62476ZM10 6.87476C8.73435 6.87476 7.70801 7.9011 7.70801 9.16675C7.70801 10.4324 8.73435 11.4587 10 11.4587C11.2657 11.4587 12.292 10.4324 12.292 9.16675C12.292 7.9011 11.2657 6.87476 10 6.87476Z" fill="#181818"/>
</svg>
