<svg width="32" height="32" viewBox="0 0 32 32" fill="none" xmlns="http://www.w3.org/2000/svg">
<path d="M16 1.6665C23.034 1.6665 29 7.47957 29 14.5679C28.9999 18.1856 27.4668 21.227 25.3154 23.7378C23.1723 26.239 20.3805 28.257 17.7578 29.8618L17.7432 29.8706L17.7275 29.8794C17.2006 30.1769 16.6053 30.3335 16 30.3335C15.3947 30.3335 14.7994 30.1769 14.2725 29.8794L14.2549 29.8696L14.2373 29.8589C11.6243 28.2413 8.83342 26.2303 6.68945 23.7368C4.53616 21.2324 3.0001 18.1977 3 14.5679C3 7.47957 8.96602 1.6665 16 1.6665ZM16 3.6665C10.0458 3.6665 5 8.60873 5 14.5679C5.0001 17.5883 6.26723 20.1771 8.20605 22.4321C10.1493 24.6923 12.7321 26.5736 15.2715 28.147C15.4939 28.269 15.7446 28.3335 16 28.3335C16.2563 28.3335 16.5075 28.2678 16.7305 28.145C19.2708 26.5892 21.8545 24.7039 23.7969 22.437C25.7352 20.175 26.9999 17.5774 27 14.5679C27 8.60873 21.9542 3.6665 16 3.6665ZM16 8.99951C19.1296 8.99951 21.667 11.5369 21.667 14.6665C21.667 17.7961 19.1296 20.3335 16 20.3335C12.8704 20.3335 10.333 17.7961 10.333 14.6665C10.333 11.5369 12.8704 8.99951 16 8.99951ZM16 10.9995C13.975 10.9995 12.333 12.6415 12.333 14.6665C12.333 16.6915 13.975 18.3335 16 18.3335C18.025 18.3335 19.667 16.6915 19.667 14.6665C19.667 12.6415 18.025 10.9995 16 10.9995Z" fill="#FC4F00"/>
</svg>
