<svg width="20" height="20" viewBox="0 0 20 20" fill="none" xmlns="http://www.w3.org/2000/svg">
<path fill-rule="evenodd" clip-rule="evenodd" d="M7.56586 2.3225C9.20318 2.28085 10.7947 2.28084 12.4321 2.3225C15.1304 2.39084 16.6176 2.42961 17.7368 3.54711C18.8573 4.67623 18.888 6.12395 18.9438 8.75121C18.9613 9.59033 18.9613 10.4053 18.9438 11.2444C18.888 13.8719 18.857 15.319 17.7387 16.4465C16.6179 17.5663 15.1311 17.6038 12.433 17.6721C11.6147 17.6929 10.807 17.7034 9.99945 17.7034C9.19202 17.7034 8.38412 17.6929 7.56586 17.6721C4.8678 17.6038 3.38125 17.5649 2.26215 16.4475C1.14149 15.3184 1.11095 13.8708 1.05511 11.2434C1.03762 10.4043 1.03762 9.58933 1.05511 8.75024C1.11094 6.12313 1.14131 4.67649 2.25922 3.54907C3.38005 2.42907 4.86752 2.39084 7.56586 2.3225ZM12.4008 3.57153C10.785 3.52986 9.21377 3.52986 7.59711 3.57153C5.06585 3.63568 3.91079 3.66443 3.14496 4.42993C2.38001 5.20154 2.3558 6.3218 2.30414 8.77563C2.28664 9.59646 2.28664 10.3954 2.30414 11.217C2.3558 13.6711 2.37944 14.7922 3.14691 15.5647C3.91108 16.328 5.06642 16.3579 7.59808 16.4221C9.2139 16.4638 10.7851 16.4638 12.4018 16.4221C14.9332 16.358 16.0882 16.3285 16.8539 15.5627C17.6188 14.7911 17.6431 13.671 17.6948 11.217C17.7123 10.3962 17.7123 9.5973 17.6948 8.77563C17.6431 6.3218 17.6185 5.2014 16.851 4.42895C16.0869 3.66566 14.9323 3.63569 12.4008 3.57153ZM13.8491 6.5393C14.1465 6.36384 14.5296 6.46266 14.7045 6.76C14.8801 7.05737 14.782 7.44047 14.4848 7.61547L12.0327 9.06567C11.2153 9.54725 10.6077 9.78734 9.99945 9.78735C9.39205 9.78735 8.78466 9.54634 7.9682 9.06567L5.51508 7.6145C5.21863 7.43864 5.11968 7.0556 5.29535 6.75903C5.4711 6.4625 5.85421 6.36283 6.15082 6.53832L8.60297 7.98852C9.82962 8.71101 10.1696 8.71102 11.3979 7.98852L13.8491 6.5393Z" fill="#181818"/>
</svg>
