<svg width="32" height="32" viewBox="0 0 32 32" fill="none" xmlns="http://www.w3.org/2000/svg">
<path fill-rule="evenodd" clip-rule="evenodd" d="M12.105 3.71693C14.725 3.65026 17.2721 3.65026 19.8921 3.71693C24.2091 3.82626 26.5878 3.88709 28.3784 5.67494C30.1718 7.48161 30.2207 9.79809 30.3101 14.0021C30.3381 15.3447 30.3381 16.6487 30.3101 17.9913C30.2207 22.1952 30.1715 24.5096 28.3823 26.3136C26.589 28.1056 24.2104 28.1662 19.8931 28.2755C18.5837 28.3089 17.2915 28.3263 15.9995 28.3263C14.7076 28.3263 13.4152 28.3089 12.106 28.2755C7.78882 28.1662 5.41025 28.1045 3.61963 26.3165C1.82644 24.5099 1.77731 22.194 1.68799 17.9904C1.65999 16.6479 1.66 15.3436 1.68799 14.0011C1.77732 9.79711 1.82639 7.48187 3.61572 5.67787C5.40904 3.88596 7.78773 3.82626 12.105 3.71693ZM19.8413 5.714C17.256 5.64734 14.7424 5.64734 12.1558 5.714C8.10509 5.81667 6.25707 5.86367 5.03174 7.089C3.80787 8.32366 3.7687 10.1156 3.68603 14.0421C3.65804 15.3554 3.65804 16.6328 3.68603 17.9474C3.7687 21.874 3.80766 23.6675 5.03564 24.9035C6.25828 26.1247 8.10637 26.1729 12.1567 26.2755C14.742 26.3422 17.2556 26.3422 19.8423 26.2755C23.893 26.1729 25.741 26.1259 26.9663 24.9005C28.1902 23.6659 28.2293 21.8739 28.312 17.9474C28.34 16.6341 28.34 15.3567 28.312 14.0421C28.2293 10.1155 28.1903 8.32207 26.9624 7.08607C25.7398 5.86476 23.8918 5.81666 19.8413 5.714ZM8.47217 10.8146C8.7535 10.3399 9.36762 10.1807 9.84228 10.462L13.7642 12.7824C15.7268 13.9384 16.2715 13.9384 18.2368 12.7824L22.1577 10.463C22.6337 10.1817 23.2468 10.3397 23.5269 10.8156C23.8082 11.2915 23.6513 11.9047 23.1753 12.1847L19.2524 14.505C17.9447 15.2755 16.9727 15.6592 15.9995 15.6593C15.0275 15.6593 14.0552 15.2744 12.7485 14.505L8.82471 12.1837C8.35021 11.9025 8.19124 11.2892 8.47217 10.8146Z" fill="white"/>
</svg>
