<svg width="32" height="32" viewBox="0 0 32 32" fill="none" xmlns="http://www.w3.org/2000/svg">
<path d="M15.9978 1.6665C18.1468 1.66651 19.8905 2.43275 21.3992 3.25732C21.8591 3.50872 22.2848 3.75676 22.6902 3.99268C23.6759 4.56632 24.5427 5.07087 25.4968 5.39209L25.532 5.40381C26.0947 5.59322 26.5652 5.75211 26.9226 5.8999C27.2611 6.03985 27.6686 6.23395 27.9558 6.5708C28.2093 6.86826 28.3378 7.19878 28.4226 7.51221C28.5002 7.79928 28.5594 8.14816 28.6238 8.5249L28.6306 8.56494C30.1882 17.6807 26.799 26.3607 18.4119 29.7505L18.366 29.769C17.5482 30.0997 16.9698 30.3335 16.0017 30.3335C15.0338 30.3335 14.456 30.0996 13.6384 29.769L13.5925 29.7505C5.2051 26.3609 1.81171 17.681 3.3689 8.56494C3.37116 8.55172 3.37349 8.53806 3.37573 8.5249C3.44004 8.14824 3.49929 7.79924 3.5769 7.51221C3.66167 7.1988 3.79023 6.86823 4.0437 6.5708C4.33086 6.23392 4.73846 6.0399 5.0769 5.8999C5.43434 5.75206 5.90482 5.59331 6.46753 5.40381L6.50269 5.39209C7.45628 5.0709 8.3224 4.56623 9.30737 3.99268C9.71254 3.75675 10.1376 3.50876 10.5974 3.25732C12.1054 2.43265 13.8487 1.6665 15.9978 1.6665ZM15.9978 3.6665C14.3477 3.6665 12.9592 4.24564 11.5574 5.01221C11.2115 5.20137 10.8526 5.41089 10.4841 5.62549C9.43367 6.23727 8.30063 6.89684 7.14038 7.2876C6.53449 7.49166 6.1289 7.62873 5.84155 7.74756C5.66953 7.81871 5.58902 7.8654 5.55933 7.8833C5.54869 7.90626 5.53 7.95171 5.50757 8.03467C5.45781 8.21871 5.41399 8.47209 5.34058 8.90186C3.89329 17.3747 7.06738 24.9563 14.3416 27.896C15.1817 28.2355 15.4419 28.3335 16.0017 28.3335C16.5616 28.3335 16.8219 28.2355 17.6619 27.896C24.9353 24.9564 28.1067 17.375 26.6589 8.90186C26.5855 8.47207 26.5417 8.21874 26.4919 8.03467C26.4695 7.95154 26.4518 7.90525 26.4412 7.88232C26.4116 7.86451 26.331 7.81873 26.1589 7.74756C25.8715 7.62873 25.4655 7.4917 24.8591 7.2876C23.6983 6.89683 22.5647 6.23739 21.5134 5.62549C21.1448 5.41095 20.7862 5.20233 20.4402 5.01318C19.0373 4.24645 17.6481 3.66651 15.9978 3.6665ZM15.3923 7.62451C15.8941 7.00455 16.6715 6.86399 17.3044 7.12354C17.9246 7.37797 18.3679 7.99389 18.3679 8.74561L18.3679 13.5884H20.6462C21.4173 13.5884 21.9644 14.0923 22.1931 14.6421C22.4208 15.1896 22.389 15.8955 21.9373 16.4536L16.6052 23.0415C16.1034 23.6613 15.326 23.8011 14.6931 23.5415C14.073 23.2871 13.6297 22.672 13.6296 21.9204L13.6296 17.0767H11.3513C10.5801 17.0766 10.0331 16.5728 9.80444 16.0229C9.5769 15.4755 9.60859 14.7695 10.0603 14.2114L15.3923 7.62451ZM11.9333 15.0767L13.9451 15.0767C14.9524 15.0768 15.6296 15.9388 15.6296 16.8218L15.6296 21.0679L20.0642 15.5884H18.0525C17.0452 15.5882 16.368 14.7271 16.3679 13.8442L16.3679 9.59717L11.9333 15.0767Z" fill="#FC4F00"/>
</svg>
