<svg width="32" height="32" viewBox="0 0 32 32" fill="none" xmlns="http://www.w3.org/2000/svg">
<path d="M15.9995 30.3334C23.9155 30.3334 30.3333 23.9163 30.3335 16.0004C30.3335 8.08428 23.9156 1.66638 15.9995 1.66638C8.08359 1.66657 1.6665 8.0844 1.6665 16.0004C1.66655 17.9748 2.06651 19.8584 2.79053 21.5726C2.98046 22.0223 3.10832 22.3264 3.19385 22.5599C3.28105 22.7981 3.29387 22.8844 3.29541 22.9066C3.30401 23.0318 3.2722 23.2027 3.05615 24.0101L1.70068 29.0746C1.60837 29.4196 1.70695 29.7879 1.95947 30.0404C2.21201 30.2929 2.58029 30.3915 2.92529 30.2992L7.98975 28.9437C8.79717 28.7277 8.96808 28.6959 9.09326 28.7045C9.11547 28.706 9.20183 28.7188 9.43994 28.806C9.67346 28.8916 9.97755 29.0194 10.4272 29.2094C12.1415 29.9334 14.0251 30.3333 15.9995 30.3334ZM15.9995 28.3334C14.2973 28.3333 12.6779 27.9894 11.2056 27.3676L11.1821 27.3578C10.7616 27.1802 10.4122 27.0324 10.1274 26.9281C9.84231 26.8237 9.54227 26.7309 9.23193 26.7094C8.72765 26.6745 8.20404 26.8153 7.60303 26.9769C7.56011 26.9885 7.51687 27.0004 7.47314 27.0121L4.07959 27.9203L4.98779 24.5267C4.99949 24.483 5.01141 24.4398 5.02295 24.3969C5.18461 23.7958 5.32542 23.2722 5.29053 22.7679C5.269 22.4576 5.17619 22.1576 5.07178 21.8724C4.9675 21.5877 4.82065 21.2382 4.64307 20.8177L4.6333 20.7943C4.01141 19.3218 3.66655 17.7027 3.6665 16.0004C3.6665 9.18897 9.18816 3.66657 15.9995 3.66638C22.811 3.66638 28.3335 9.18885 28.3335 16.0004C28.3333 22.8117 22.8109 28.3334 15.9995 28.3334ZM19.7534 23.515C20.2594 23.6298 20.7324 23.7369 21.354 23.6068C21.8076 23.5118 22.2304 23.2713 22.5571 23.0101C22.8837 22.749 23.2104 22.3904 23.4028 21.9691C23.6679 21.3889 23.6676 20.7991 23.6665 20.1595C23.6664 20.1186 23.6655 20.0769 23.6655 20.0355C23.6655 19.7416 23.6568 19.2466 23.4663 18.7894C23.2386 18.2433 22.7695 17.7934 22.0347 17.6781L22.0269 17.6771C21.1157 17.5343 20.4231 17.4251 19.9331 17.3539C19.6879 17.3182 19.4839 17.2909 19.3247 17.2728C19.1938 17.258 19.0134 17.2396 18.8628 17.2484C18.2104 17.2867 17.6915 17.5511 17.2896 17.8265C17.0337 18.0019 16.7553 18.2366 16.5366 18.4213C16.4507 18.4938 16.3737 18.5593 16.311 18.6097L15.4019 19.3412C14.8923 18.9601 14.4003 18.5349 13.9321 18.0668C13.4642 17.5988 13.0396 17.1073 12.6587 16.598L13.3901 15.6879C13.4405 15.6254 13.5053 15.5489 13.5776 15.4633C13.7623 15.2446 13.998 14.9662 14.1733 14.7103C14.4488 14.3082 14.7133 13.7887 14.7515 13.1361C14.7602 12.9857 14.7419 12.8059 14.7271 12.6752C14.709 12.5159 14.6807 12.312 14.645 12.0668C14.5738 11.5768 14.4656 10.8842 14.3228 9.97302L14.3218 9.96521C14.2065 9.23 13.7558 8.76124 13.2095 8.53357C12.7522 8.34303 12.2572 8.33337 11.9634 8.33337C11.9222 8.33337 11.8811 8.33344 11.8403 8.33337C11.2009 8.33229 10.6108 8.33124 10.0308 8.59607C9.60922 8.78862 9.24995 9.11601 8.98877 9.44275C8.72765 9.76941 8.48808 10.1914 8.39307 10.6449C8.26288 11.2667 8.37001 11.7404 8.48486 12.2465C8.49009 12.2695 8.49525 12.2926 8.50049 12.3158C9.07984 14.8815 10.4343 17.3981 12.5181 19.4818C14.6017 21.5654 17.1175 22.92 19.6831 23.4994C19.7065 23.5047 19.7302 23.5097 19.7534 23.515ZM11.5317 14.807C11.0355 13.8532 10.6751 12.8651 10.4517 11.8754C10.3193 11.2891 10.3162 11.217 10.3501 11.0551C10.3626 10.9953 10.4214 10.8542 10.5513 10.6918C10.6811 10.5293 10.8063 10.4408 10.8618 10.4154C10.9992 10.3528 11.1316 10.3334 11.9634 10.3334C12.0943 10.3334 12.2009 10.3374 12.2905 10.348C12.3171 10.3512 12.3398 10.3543 12.3589 10.3578C12.4965 11.2362 12.5992 11.8918 12.6665 12.3549C12.7013 12.594 12.7252 12.7731 12.7397 12.9008C12.7498 12.9894 12.7525 13.0316 12.7534 13.0424C12.7398 13.1926 12.6762 13.3557 12.5229 13.5795C12.4035 13.7538 12.2864 13.8927 12.1401 14.0648C12.0508 14.17 11.9503 14.2877 11.8325 14.434L11.5317 14.807ZM20.9448 21.6498C20.7828 21.6837 20.7101 21.6807 20.1235 21.5482C19.1338 21.3247 18.1457 20.9644 17.1919 20.4681L17.5659 20.1674C17.7122 20.0496 17.8299 19.9491 17.9351 19.8597C18.1072 19.7135 18.2451 19.5954 18.4194 19.476C18.6434 19.3225 18.8072 19.26 18.9575 19.2465C18.9683 19.2474 19.0104 19.2501 19.0991 19.2601C19.2268 19.2746 19.4058 19.2986 19.645 19.3334C20.108 19.4007 20.7628 19.5033 21.6411 19.641C21.6446 19.66 21.6487 19.6829 21.6519 19.7094C21.6624 19.7988 21.6655 19.9049 21.6655 20.0355C21.6655 20.8685 21.6463 21.0005 21.5835 21.1381C21.5581 21.1936 21.4705 21.3188 21.3081 21.4486C21.1458 21.5784 21.0047 21.6372 20.9448 21.6498Z" fill="white"/>
</svg>
